<svg width="141" height="27" viewBox="0 0 141 27" fill="none" xmlns="http://www.w3.org/2000/svg">
<path d="M133.879 17.0712L131.755 18.0612C131.605 18.4042 131.374 18.7062 131.083 18.9419C130.792 19.1775 130.448 19.34 130.081 19.4158C129.714 19.4916 129.335 19.4784 128.974 19.3774C128.613 19.2764 128.282 19.0905 128.007 18.8352L133.365 16.3352C133.824 16.1222 134.273 15.9112 134.136 15.4262C133.718 14.3004 132.895 13.3705 131.829 12.8174C130.763 12.2642 129.529 12.1274 128.368 12.4334C127.206 12.7394 126.2 13.4664 125.545 14.4731C124.89 15.4797 124.633 16.6941 124.823 17.88C125.013 19.0659 125.638 20.1386 126.576 20.8895C127.513 21.6404 128.696 22.0158 129.895 21.9427C131.094 21.8697 132.223 21.3534 133.062 20.4942C133.901 19.6351 134.391 18.4944 134.436 17.2942C134.417 17.0922 134.199 16.9202 133.879 17.0712ZM127.254 17.1152C127.254 16.6578 127.387 16.2102 127.638 15.8276C127.888 15.4449 128.245 15.1438 128.665 14.9613C129.084 14.7788 129.548 14.7228 129.999 14.8002C130.449 14.8777 130.868 15.0852 131.202 15.3972L127.26 17.2342C127.259 17.1952 127.254 17.1552 127.254 17.1152Z" fill="#898989"/>
<path d="M103.033 13.2362C102.47 12.7533 101.786 12.4355 101.054 12.3181C100.322 12.2007 99.5724 12.2884 98.8875 12.5712V12.4582C98.8873 12.3482 98.8435 12.2428 98.7657 12.1651C98.6879 12.0873 98.5825 12.0435 98.4725 12.0432H96.8095C96.6995 12.0432 96.5939 12.0869 96.5161 12.1647C96.4383 12.2426 96.3945 12.3481 96.3945 12.4582V21.2862C96.3945 21.3964 96.4382 21.502 96.516 21.58C96.5938 21.658 96.6994 21.7019 96.8095 21.7022H98.4725C98.5829 21.7022 98.6887 21.6584 98.7667 21.5804C98.8447 21.5024 98.8885 21.3965 98.8885 21.2862V16.2932C98.8877 16.0007 98.9707 15.7142 99.1279 15.4675C99.285 15.2209 99.5096 15.0245 99.7751 14.9017C100.041 14.7789 100.336 14.7349 100.625 14.7749C100.915 14.8149 101.187 14.9371 101.41 15.1272V15.1192C101.451 15.1542 101.5 15.1807 101.552 15.197C101.604 15.2134 101.658 15.2193 101.713 15.2145C101.767 15.2096 101.82 15.1942 101.868 15.1689C101.917 15.1436 101.96 15.1091 101.995 15.0672L103.064 13.7942C103.129 13.7143 103.163 13.6125 103.157 13.5091C103.151 13.4057 103.107 13.3083 103.033 13.2362Z" fill="#898989"/>
<path d="M90.3905 7.26814C88.5384 6.16136 86.4241 5.56994 84.2665 5.55515C82.1586 5.55003 80.073 5.98711 78.1445 6.83815C78.1445 6.83815 79.5095 3.49414 84.4505 3.49414C85.5807 3.51941 86.6931 3.78097 87.7161 4.26199C88.7391 4.74302 89.6501 5.43286 90.3905 6.28714C91.1308 5.43299 92.0416 4.74323 93.0645 4.26221C94.0873 3.78119 95.1995 3.51955 96.3295 3.49414C101.271 3.49414 102.637 6.83815 102.637 6.83815C100.708 5.98706 98.6218 5.54998 96.5135 5.55515C94.3563 5.57011 92.2423 6.16153 90.3905 7.26814Z" fill="#898989"/>
<path d="M93.585 1.0251C94.3527 0.630898 95.2034 0.425293 96.0665 0.425293C96.9295 0.425293 97.7802 0.630898 98.548 1.0251C96.9913 1.198 95.4874 1.69168 94.1311 2.47498C92.7749 3.25828 91.5957 4.3142 90.668 5.57611C90.779 4.64652 91.0992 3.75415 91.6044 2.96596C92.1096 2.17777 92.7867 1.51422 93.585 1.0251Z" fill="#898989"/>
<path d="M96.5808 7.22915C95.8336 6.85708 95.0125 6.65721 94.1778 6.64423C93.3432 6.63125 92.5163 6.80549 91.7578 7.15415C93.155 7.09811 94.5367 7.46324 95.7238 8.20215C96.9364 8.84247 97.9198 9.84406 98.5378 11.0681C98.5906 10.3109 98.4364 9.55356 98.0917 8.87728C97.7469 8.20099 97.2246 7.63126 96.5808 7.22915Z" fill="#898989"/>
<path d="M84.1997 7.22915C84.9469 6.85708 85.7681 6.65721 86.6027 6.64423C87.4373 6.63125 88.2643 6.80549 89.0227 7.15415C87.6256 7.09811 86.2438 7.46324 85.0567 8.20215C83.8445 8.84227 82.8617 9.84397 82.2447 11.0681C82.1914 10.3111 82.3451 9.55371 82.6895 8.87738C83.034 8.20106 83.556 7.63127 84.1997 7.22915Z" fill="#898989"/>
<path d="M89.4526 6.28809L87.7786 20.7941C87.7655 20.9102 87.7773 21.0278 87.8133 21.139C87.8493 21.2502 87.9086 21.3524 87.9873 21.4389C88.0659 21.5253 88.1621 21.5939 88.2695 21.6402C88.3768 21.6864 88.4928 21.7093 88.6096 21.7071H92.1646C92.2814 21.7091 92.3973 21.6862 92.5045 21.6398C92.6118 21.5935 92.708 21.5249 92.7866 21.4385C92.8652 21.3521 92.9245 21.25 92.9606 21.1388C92.9966 21.0277 93.0086 20.9102 92.9956 20.7941L91.3206 6.28809H89.4526Z" fill="#898989"/>
<path d="M87.1964 1.02498C86.4288 0.630863 85.5783 0.425293 84.7154 0.425293C83.8525 0.425293 83.002 0.630863 82.2344 1.02498C83.791 1.19805 85.2948 1.69181 86.6511 2.4751C88.0073 3.25838 89.1866 4.31421 90.1144 5.57599C90.0032 4.64631 89.6829 3.75389 89.1776 2.9657C88.6722 2.1775 87.9948 1.51399 87.1964 1.02498Z" fill="#898989"/>
<path d="M112.425 12.0471H110.763C110.653 12.0471 110.547 12.0908 110.469 12.1685C110.391 12.2463 110.347 12.3519 110.346 12.4621V12.8811C109.609 12.4717 108.778 12.2619 107.935 12.2725C107.091 12.283 106.266 12.5136 105.539 12.9413C104.812 13.369 104.21 13.9791 103.791 14.7111C103.373 15.4432 103.152 16.2718 103.152 17.1151C103.152 17.9584 103.373 18.787 103.791 19.5191C104.21 20.2511 104.812 20.8612 105.539 21.2889C106.266 21.7166 107.091 21.9472 107.935 21.9577C108.778 21.9683 109.609 21.7585 110.346 21.3491V21.7661C110.346 21.8208 110.357 21.875 110.378 21.9255C110.399 21.9761 110.43 22.022 110.469 22.0606C110.507 22.0993 110.553 22.1299 110.604 22.1507C110.655 22.1716 110.709 22.1822 110.763 22.1821H112.425C112.48 22.1822 112.534 22.1716 112.585 22.1507C112.635 22.1299 112.681 22.0992 112.72 22.0606C112.759 22.0219 112.789 21.976 112.81 21.9255C112.831 21.8749 112.842 21.8208 112.841 21.7661V12.4661C112.842 12.4112 112.831 12.3568 112.811 12.306C112.79 12.2552 112.759 12.209 112.721 12.17C112.682 12.1311 112.636 12.1002 112.585 12.0791C112.535 12.058 112.48 12.0471 112.425 12.0471ZM107.997 19.4631C107.533 19.4631 107.079 19.3253 106.692 19.0672C106.306 18.8091 106.005 18.4423 105.827 18.013C105.65 17.5838 105.603 17.1115 105.694 16.6559C105.784 16.2002 106.008 15.7816 106.336 15.4531C106.665 15.1246 107.084 14.9009 107.539 14.8103C107.995 14.7196 108.467 14.7661 108.896 14.9439C109.326 15.1217 109.693 15.4228 109.951 15.8091C110.209 16.1954 110.346 16.6495 110.346 17.1141C110.346 17.7371 110.099 18.3346 109.658 18.7751C109.218 19.2156 108.62 19.4631 107.997 19.4631Z" fill="#898989"/>
<path d="M124.81 12.0482H122.926C122.839 12.0465 122.754 12.0717 122.683 12.1204C122.611 12.1692 122.556 12.239 122.526 12.3202L119.539 18.7262L116.552 12.3202C116.522 12.2389 116.467 12.169 116.395 12.1203C116.324 12.0715 116.239 12.0463 116.152 12.0482H114.267C114.203 12.0517 114.142 12.0706 114.087 12.1034C114.033 12.1362 113.987 12.1817 113.954 12.2361C113.922 12.2905 113.903 12.3522 113.899 12.4156C113.895 12.4791 113.907 12.5424 113.934 12.6002L118.181 21.7072C118.216 21.7823 118.273 21.8452 118.344 21.8878C118.416 21.9304 118.498 21.9507 118.581 21.9462H120.507C120.59 21.9506 120.672 21.9302 120.743 21.8876C120.815 21.845 120.872 21.7822 120.907 21.7072L125.154 12.6002C125.18 12.5416 125.192 12.4773 125.188 12.4131C125.184 12.3489 125.164 12.2868 125.13 12.2322C125.096 12.1776 125.049 12.1322 124.993 12.1001C124.937 12.0681 124.874 12.0502 124.81 12.0482Z" fill="#898989"/>
<path d="M139.589 19.2121H138.948C138.736 19.2121 138.533 19.1278 138.383 18.9777C138.233 18.8277 138.148 18.6242 138.148 18.412V9.22505C138.148 9.1149 138.104 9.00935 138.026 8.93155C137.948 8.85375 137.842 8.81006 137.732 8.81006H136.071C135.961 8.81006 135.856 8.85378 135.778 8.93161C135.7 9.00944 135.656 9.11499 135.656 9.22505V18.412C135.656 18.8444 135.741 19.2726 135.907 19.6721C136.072 20.0717 136.314 20.4347 136.62 20.7405C136.926 21.0463 137.289 21.2889 137.688 21.4544C138.088 21.6199 138.516 21.7051 138.948 21.7051H139.589C139.7 21.7051 139.805 21.6612 139.883 21.5832C139.961 21.5052 140.005 21.3994 140.005 21.2891V19.6261C140.005 19.5161 139.961 19.4108 139.883 19.3332C139.805 19.2556 139.699 19.2121 139.589 19.2121Z" fill="#898989"/>
<path d="M21.4826 12.272C20.5248 12.2722 19.5886 12.5564 18.7923 13.0887C17.996 13.6209 17.3754 14.3774 17.009 15.2623C16.6426 16.1473 16.5468 17.121 16.7338 18.0604C16.9208 18.9998 17.3821 19.8627 18.0595 20.5399C18.7368 21.2171 19.5997 21.6782 20.5392 21.865C21.4786 22.0518 22.4523 21.9558 23.3372 21.5892C24.2221 21.2226 24.9784 20.6019 25.5105 19.8055C26.0426 19.0091 26.3266 18.0728 26.3266 17.115C26.3264 15.8304 25.8159 14.5986 24.9075 13.6904C23.9991 12.7822 22.7672 12.272 21.4826 12.272ZM21.4826 19.464C21.018 19.464 20.5639 19.3262 20.1776 19.0681C19.7913 18.81 19.4902 18.4431 19.3124 18.0139C19.1346 17.5847 19.0881 17.1124 19.1788 16.6567C19.2694 16.201 19.4931 15.7825 19.8216 15.454C20.1501 15.1255 20.5687 14.9017 21.0244 14.8111C21.48 14.7205 21.9523 14.767 22.3816 14.9448C22.8108 15.1226 23.1776 15.4236 23.4358 15.8099C23.6939 16.1962 23.8316 16.6504 23.8316 17.115C23.8316 17.738 23.5841 18.3354 23.1436 18.776C22.7031 19.2165 22.1056 19.464 21.4826 19.464Z" fill="#898989"/>
<path d="M36.655 12.0469H34.992C34.8819 12.0469 34.7763 12.0906 34.6985 12.1684C34.6207 12.2463 34.577 12.3518 34.577 12.4619V12.8809C33.8397 12.4715 33.0084 12.2617 32.1652 12.2722C31.322 12.2828 30.4961 12.5134 29.7694 12.9411C29.0426 13.3688 28.4402 13.9788 28.0216 14.7109C27.603 15.4429 27.3828 16.2716 27.3828 17.1149C27.3828 17.9581 27.603 18.7868 28.0216 19.5188C28.4402 20.2509 29.0426 20.8609 29.7694 21.2887C30.4961 21.7164 31.322 21.9469 32.1652 21.9575C33.0084 21.968 33.8397 21.7583 34.577 21.3489V21.6319C34.5769 22.149 34.4061 22.6516 34.0911 23.0618C33.7762 23.4719 33.3346 23.7665 32.835 23.9C32.3354 24.0335 31.8057 23.9983 31.3282 23.7999C30.8506 23.6015 30.4519 23.251 30.194 22.8029C30.1667 22.7555 30.1304 22.714 30.0871 22.6807C30.0438 22.6474 29.9943 22.6231 29.9415 22.6089C29.8887 22.5948 29.8337 22.5912 29.7796 22.5984C29.7254 22.6056 29.6732 22.6234 29.626 22.6509L28.185 23.4819C28.0941 23.5345 28.0267 23.6196 27.9962 23.72C27.9658 23.8205 27.9746 23.9287 28.021 24.0229C28.5489 24.9521 29.3696 25.6805 30.3549 26.0944C31.3402 26.5084 32.4348 26.5847 33.468 26.3113C34.5012 26.038 35.4149 25.4305 36.0666 24.5835C36.7184 23.7365 37.0715 22.6976 37.071 21.6289V12.4599C37.0702 12.3501 37.026 12.245 36.9481 12.1676C36.8701 12.0903 36.7648 12.0469 36.655 12.0469ZM32.227 19.4629C31.7624 19.4629 31.3082 19.3251 30.9219 19.067C30.5356 18.8089 30.2346 18.442 30.0568 18.0128C29.879 17.5836 29.8325 17.1113 29.9231 16.6556C30.0137 16.1999 30.2375 15.7814 30.566 15.4529C30.8945 15.1244 31.313 14.9006 31.7687 14.81C32.2244 14.7194 32.6967 14.7659 33.1259 14.9437C33.5551 15.1215 33.922 15.4225 34.1801 15.8088C34.4382 16.1951 34.576 16.6493 34.576 17.1139C34.576 17.7367 34.3286 18.334 33.8883 18.7745C33.448 19.215 32.8498 19.4626 32.227 19.4629Z" fill="#898989"/>
<path d="M53.9493 11.796H52.2773V9.22604C52.2773 9.17146 52.2666 9.11742 52.2456 9.067C52.2247 9.01659 52.1941 8.97079 52.1554 8.93224C52.1168 8.89369 52.0709 8.86314 52.0204 8.84235C51.97 8.82155 51.9159 8.8109 51.8613 8.81104H50.1983C50.0883 8.81104 49.9827 8.85476 49.9049 8.93259C49.827 9.01042 49.7833 9.11598 49.7833 9.22604V11.796H48.1103C48.0003 11.796 47.8947 11.8398 47.8169 11.9176C47.739 11.9954 47.6953 12.101 47.6953 12.211V13.874C47.6952 13.9286 47.7058 13.9827 47.7266 14.0332C47.7474 14.0836 47.778 14.1295 47.8165 14.1681C47.8551 14.2068 47.9009 14.2374 47.9513 14.2584C48.0017 14.2793 48.0557 14.29 48.1103 14.29H49.7833V19.157C49.7833 19.8334 50.0519 20.4821 50.5301 20.9605C51.0083 21.4389 51.6569 21.7078 52.3333 21.708H53.7183C53.8287 21.708 53.9345 21.6642 54.0125 21.5862C54.0905 21.5082 54.1343 21.4024 54.1343 21.292V19.629C54.1343 19.5187 54.0905 19.4129 54.0125 19.3349C53.9345 19.2569 53.8287 19.213 53.7183 19.213H52.3333C52.3186 19.2128 52.3046 19.2068 52.2944 19.1963C52.2841 19.1858 52.2783 19.1717 52.2783 19.157V14.291H53.9493C54.0596 14.291 54.1655 14.2472 54.2435 14.1692C54.3215 14.0912 54.3653 13.9854 54.3653 13.875V12.212C54.3654 12.1574 54.3548 12.1032 54.3339 12.0527C54.3131 12.0022 54.2824 11.9562 54.2438 11.9176C54.2051 11.8789 54.1592 11.8483 54.1087 11.8274C54.0581 11.8066 54.004 11.7959 53.9493 11.796Z" fill="#898989"/>
<path d="M47.2493 17.071L45.1263 18.061C44.9758 18.404 44.7453 18.706 44.4541 18.9416C44.1629 19.1773 43.8195 19.3399 43.4527 19.4156C43.0858 19.4914 42.7062 19.4782 42.3455 19.3772C41.9847 19.2762 41.6534 19.0903 41.3793 18.835L46.7373 16.335C47.1953 16.122 47.6433 15.911 47.5073 15.426C47.0888 14.3007 46.2668 13.3713 45.201 12.8185C44.1353 12.2656 42.9021 12.1289 41.7412 12.4348C40.5802 12.7408 39.5746 13.4675 38.9197 14.4737C38.2648 15.48 38.0076 16.6938 38.1979 17.8791C38.3883 19.0645 39.0127 20.1367 39.9497 20.8873C40.8867 21.6379 42.0694 22.0132 43.2677 21.9402C44.4661 21.8672 45.5945 21.3512 46.4335 20.4925C47.2725 19.6338 47.7622 18.4937 47.8073 17.294C47.7883 17.092 47.5713 16.92 47.2493 17.071ZM40.6263 17.115C40.6257 16.6576 40.7588 16.2099 41.0093 15.8272C41.2597 15.4444 41.6166 15.1433 42.036 14.9607C42.4554 14.7782 42.9191 14.7222 43.3699 14.7997C43.8207 14.8772 44.239 15.0848 44.5733 15.397L40.6313 17.234C40.6303 17.195 40.6263 17.155 40.6263 17.115Z" fill="#898989"/>
<path d="M73.9311 17.0711L71.8081 18.061C71.6576 18.4042 71.4271 18.7064 71.1358 18.9422C70.8446 19.178 70.5011 19.3406 70.1341 19.4164C69.7671 19.4922 69.3873 19.4789 69.0264 19.3778C68.6656 19.2767 68.3342 19.0905 68.0601 18.835L73.4181 16.335C73.8761 16.122 74.3261 15.911 74.1891 15.426C73.7704 14.3 72.948 13.3699 71.8816 12.8166C70.8152 12.2633 69.5812 12.1264 68.4195 12.4324C67.2578 12.7385 66.2514 13.4656 65.596 14.4725C64.9407 15.4794 64.6833 16.694 64.8737 17.8802C65.0642 19.0663 65.6891 20.1393 66.6267 20.8903C67.5644 21.6414 68.7479 22.0168 69.947 21.9437C71.1461 21.8706 72.2752 21.3542 73.1147 20.4948C73.9542 19.6354 74.4441 18.4946 74.4891 17.294C74.4681 17.092 74.2521 16.9201 73.9311 17.0711ZM67.3091 17.115C67.3085 16.6576 67.4416 16.21 67.6921 15.8273C67.9425 15.4445 68.2994 15.1433 68.7188 14.9608C69.1382 14.7782 69.6019 14.7223 70.0527 14.7998C70.5035 14.8773 70.9218 15.0849 71.2561 15.397L67.3151 17.234C67.3111 17.195 67.3071 17.155 67.3071 17.115H67.3091Z" fill="#898989"/>
<path d="M59.7604 12.2721C59.235 12.271 58.7145 12.3729 58.2284 12.5721V9.2231C58.2284 9.16852 58.2176 9.11447 58.1967 9.06406C58.1758 9.01364 58.1451 8.96784 58.1065 8.92929C58.0678 8.89074 58.022 8.8602 57.9715 8.8394C57.921 8.81861 57.867 8.80798 57.8124 8.80811H56.1494C56.0393 8.80811 55.9338 8.85183 55.8559 8.92966C55.7781 9.00749 55.7344 9.11304 55.7344 9.2231V21.2871C55.7344 21.3973 55.7781 21.5029 55.8559 21.5809C55.9337 21.6589 56.0392 21.7028 56.1494 21.7031H57.8114C57.9217 21.7031 58.0275 21.6593 58.1055 21.5813C58.1835 21.5032 58.2274 21.3974 58.2274 21.2871V16.2941C58.2274 16.0929 58.267 15.8937 58.344 15.7078C58.421 15.522 58.5338 15.3531 58.6761 15.2108C58.8183 15.0686 58.9872 14.9557 59.1731 14.8787C59.359 14.8017 59.5582 14.7621 59.7594 14.7621C59.9606 14.7621 60.1598 14.8017 60.3456 14.8787C60.5315 14.9557 60.7004 15.0686 60.8427 15.2108C60.9849 15.3531 61.0978 15.522 61.1748 15.7078C61.2517 15.8937 61.2914 16.0929 61.2914 16.2941V21.2871C61.2914 21.3974 61.3352 21.5032 61.4132 21.5813C61.4912 21.6593 61.597 21.7031 61.7074 21.7031H63.3704C63.4807 21.7031 63.5865 21.6593 63.6645 21.5813C63.7426 21.5032 63.7864 21.3974 63.7864 21.2871V16.2941C63.7853 15.227 63.3607 14.204 62.6058 13.4499C61.8509 12.6957 60.8274 12.2721 59.7604 12.2721Z" fill="#898989"/>
<path d="M82.846 13.236C82.2842 12.753 81.5995 12.4352 80.868 12.3179C80.1365 12.2005 79.3868 12.2881 78.7021 12.571V12.458C78.7019 12.4033 78.691 12.3493 78.67 12.2988C78.649 12.2484 78.6182 12.2026 78.5795 12.1641C78.5408 12.1256 78.4948 12.095 78.4443 12.0743C78.3938 12.0535 78.3397 12.0428 78.285 12.043H76.623C76.5129 12.043 76.4072 12.0867 76.3293 12.1645C76.2513 12.2423 76.2073 12.3478 76.207 12.458V21.286C76.207 21.3963 76.2509 21.5021 76.3289 21.5801C76.4069 21.6581 76.5127 21.702 76.623 21.702H78.285C78.3955 21.702 78.5014 21.6582 78.5796 21.5802C78.6577 21.5022 78.7018 21.3964 78.7021 21.286V16.293C78.7009 16.0005 78.7838 15.7139 78.9408 15.4671C79.0978 15.2204 79.3224 15.024 79.5878 14.9011C79.8532 14.7783 80.1483 14.7343 80.438 14.7744C80.7278 14.8144 80.9999 14.9368 81.222 15.127V15.119C81.3068 15.1895 81.416 15.2237 81.5258 15.2139C81.6356 15.2042 81.7371 15.1513 81.808 15.067L82.876 13.794C82.9421 13.7142 82.9757 13.6125 82.9701 13.5091C82.9645 13.4057 82.9202 13.3082 82.846 13.236Z" fill="#898989"/>
<path d="M12.2499 7.2679C10.3981 6.16128 8.28412 5.56987 6.12691 5.5549C4.01865 5.54974 1.93275 5.98682 0.00390625 6.83791C0.00390625 6.83791 1.36891 3.4939 6.30991 3.4939C7.44009 3.51916 8.55247 3.78072 9.5755 4.26175C10.5985 4.74278 11.5095 5.43262 12.2499 6.2869C12.9903 5.43262 13.9013 4.74278 14.9243 4.26175C15.9473 3.78072 17.0597 3.51916 18.1899 3.4939C23.1319 3.4939 24.4959 6.83791 24.4959 6.83791C22.5671 5.98682 20.4812 5.54974 18.3729 5.5549C16.2157 5.56987 14.1017 6.16128 12.2499 7.2679Z" fill="#898989"/>
<path d="M15.4443 1.02498C16.2122 0.630855 17.0628 0.425293 17.9258 0.425293C18.7889 0.425293 19.6395 0.630855 20.4073 1.02498C18.8508 1.19805 17.3469 1.69181 15.9907 2.4751C14.6344 3.25838 13.4552 4.31421 12.5273 5.57599C12.6384 4.6464 12.9586 3.75403 13.4637 2.96584C13.9689 2.17765 14.6461 1.5141 15.4443 1.02498Z" fill="#898989"/>
<path d="M18.4402 7.2289C17.693 6.85683 16.8718 6.65696 16.0372 6.64399C15.2026 6.63101 14.3756 6.80525 13.6172 7.1539C15.0143 7.09781 16.3961 7.46294 17.5832 8.20191C18.7958 8.84186 19.779 9.84357 20.3962 11.0679C20.4494 10.3107 20.2955 9.55331 19.9509 8.87697C19.6063 8.20064 19.0841 7.6309 18.4402 7.2289Z" fill="#898989"/>
<path d="M6.0591 7.22902C6.80648 6.85687 7.62777 6.65696 8.46258 6.64399C9.2974 6.63101 10.1245 6.80529 10.8831 7.15403C9.48562 7.09791 8.10352 7.46304 6.9161 8.20203C5.70387 8.84215 4.72104 9.84384 4.1041 11.068C4.05073 10.3109 4.20451 9.55359 4.54893 8.87726C4.89334 8.20094 5.41541 7.63114 6.0591 7.22902Z" fill="#898989"/>
<path d="M11.3159 6.28809L9.64191 20.7941C9.62879 20.9102 9.64062 21.0278 9.6766 21.139C9.71258 21.2502 9.77189 21.3524 9.85056 21.4389C9.92923 21.5253 10.0254 21.5939 10.1328 21.6402C10.2401 21.6864 10.3561 21.7093 10.4729 21.7071H14.0269C14.1437 21.7091 14.2595 21.6862 14.3667 21.6399C14.4739 21.5935 14.57 21.5249 14.6486 21.4385C14.7271 21.3521 14.7864 21.2499 14.8223 21.1388C14.8582 21.0276 14.87 20.9101 14.8569 20.7941L13.1839 6.28809H11.3159Z" fill="#898989"/>
<path d="M9.05284 1.02498C8.28504 0.630855 7.4344 0.425293 6.57134 0.425293C5.70829 0.425293 4.85765 0.630855 4.08984 1.02498C5.64649 1.19787 7.1504 1.69155 8.50668 2.47485C9.86295 3.25815 11.0421 4.31408 11.9698 5.57599C11.8588 4.6464 11.5386 3.75403 11.0334 2.96584C10.5282 2.17765 9.85111 1.5141 9.05284 1.02498Z" fill="#898989"/>
</svg>
