<svg width="166" height="33" viewBox="0 0 166 33" fill="none" xmlns="http://www.w3.org/2000/svg">
<g clip-path="url(#clip0_587_21013)">
<path d="M158.168 20.9503L155.664 22.1656C155.235 23.1795 154.262 23.8896 153.131 23.8896C152.403 23.8896 151.743 23.5968 151.248 23.1173L157.561 20.0498C158.102 19.7899 158.629 19.53 158.471 18.9333C157.663 16.6748 155.583 15.0605 153.131 15.0605C149.979 15.0605 147.422 17.7217 147.422 21.0088C147.422 24.296 149.976 26.9571 153.131 26.9571C156.285 26.9571 158.717 24.4131 158.829 21.2321C158.804 20.9832 158.548 20.7709 158.172 20.9576L158.168 20.9503ZM150.362 21.0052C150.362 19.4129 151.602 18.1207 153.131 18.1207C153.861 18.1207 154.522 18.4172 155.014 18.8967L150.369 21.1516C150.369 21.104 150.362 21.0564 150.362 21.0052Z" fill="#64C243"/>
<path d="M121.816 16.2474C120.987 15.508 119.912 15.0577 118.735 15.0577C118.095 15.0577 117.488 15.1932 116.929 15.4311V15.292C116.929 15.0102 116.711 14.7832 116.441 14.7832H114.481C114.21 14.7832 113.992 15.0102 113.992 15.292V26.1344C113.992 26.4162 114.21 26.6432 114.481 26.6432H116.441C116.711 26.6432 116.929 26.4126 116.929 26.1344V20.0031C116.929 18.9635 117.737 18.1216 118.735 18.1216C119.181 18.1216 119.589 18.2936 119.901 18.5718V18.5608C120.105 18.7402 120.414 18.7146 120.586 18.4949L121.847 16.9319C122.013 16.7269 121.995 16.4304 121.816 16.2474Z" fill="#64C243"/>
<path d="M106.916 8.91518C106.916 8.91518 103.87 6.8104 99.7003 6.8104C95.5302 6.8104 92.4844 8.38441 92.4844 8.38441C92.4844 8.38441 94.0934 4.27734 99.9146 4.27734C104.309 4.27734 106.916 7.70722 106.916 7.70722C106.916 7.70722 109.523 4.27734 113.918 4.27734C119.743 4.27734 121.352 8.38441 121.352 8.38441C121.352 8.38441 118.306 6.8104 114.136 6.8104C109.966 6.8104 106.92 8.91518 106.92 8.91518H106.916Z" fill="#64C243"/>
<path d="M110.682 1.24349C113.748 -0.429358 116.531 1.24349 116.531 1.24349C116.531 1.24349 114.008 1.40821 111.324 3.02248C108.64 4.63676 107.242 6.82939 107.242 6.82939C107.242 6.82939 107.611 2.91267 110.682 1.23983V1.24349Z" fill="#64C243"/>
<path d="M114.215 8.86762C111.598 7.2387 108.531 8.7761 108.531 8.7761C108.531 8.7761 110.646 8.51621 113.204 10.0646C115.765 11.613 116.52 13.586 116.52 13.586C116.52 13.586 116.833 10.4965 114.215 8.87128V8.86762Z" fill="#64C243"/>
<path d="M99.6131 8.86762C102.23 7.2387 105.297 8.7761 105.297 8.7761C105.297 8.7761 103.182 8.51621 100.625 10.0646C98.0673 11.613 97.3085 13.586 97.3085 13.586C97.3085 13.586 96.9958 10.4965 99.6131 8.87128V8.86762Z" fill="#64C243"/>
<path d="M105.815 7.71094L103.841 25.5229C103.785 26.1378 104.227 26.643 104.821 26.643H109.012C109.606 26.643 110.045 26.1378 109.992 25.5229L108.018 7.71094H105.815Z" fill="#64C243"/>
<path d="M103.146 1.24349C100.079 -0.429358 97.2969 1.24349 97.2969 1.24349C97.2969 1.24349 99.8193 1.40821 102.503 3.02248C105.187 4.63676 106.586 6.82939 106.586 6.82939C106.586 6.82939 106.213 2.91267 103.146 1.23983V1.24349Z" fill="#64C243"/>
<path d="M132.887 14.7832H130.93C130.659 14.7832 130.438 15.0102 130.438 15.292V15.8045C129.616 15.3286 128.674 15.0577 127.67 15.0577C124.518 15.0577 121.961 17.7189 121.961 21.006C121.961 24.2932 124.515 26.9543 127.67 26.9543C128.674 26.9543 129.616 26.6798 130.438 26.2076V26.7201C130.438 27.0019 130.659 27.2289 130.93 27.2289H132.887C133.157 27.2289 133.375 27.0019 133.375 26.7201V15.2957C133.375 15.0138 133.157 14.7869 132.887 14.7869V14.7832ZM127.67 23.8905C126.142 23.8905 124.901 22.5983 124.901 21.006C124.901 19.4137 126.142 18.1216 127.67 18.1216C129.198 18.1216 130.438 19.4137 130.438 21.006C130.438 22.5983 129.198 23.8905 127.67 23.8905Z" fill="#64C243"/>
<path d="M147.485 14.7835H145.265C145.061 14.7762 144.864 14.908 144.791 15.1166L141.271 22.983L137.75 15.1166C137.677 14.9043 137.48 14.7762 137.276 14.7835H135.056C134.694 14.7835 134.55 15.2045 134.662 15.4607L139.669 26.6435C139.753 26.8375 139.943 26.9473 140.139 26.9363H142.409C142.602 26.9473 142.792 26.8375 142.88 26.6435L147.886 15.4607C147.998 15.2045 147.854 14.7835 147.492 14.7835H147.485Z" fill="#64C243"/>
<path d="M164.899 23.5839H164.144C163.624 23.5839 163.203 23.1447 163.203 22.6029V11.3213C163.203 11.0395 162.985 10.8125 162.711 10.8125H160.754C160.483 10.8125 160.266 11.0395 160.266 11.3213V22.6029C160.266 24.8358 162.001 26.6478 164.144 26.6478H164.899C165.17 26.6478 165.388 26.4172 165.388 26.139V24.0964C165.388 23.8146 165.17 23.5839 164.899 23.5839Z" fill="#64C243"/>
<path d="M25.7088 15.0586C22.5575 15.0586 20 17.7198 20 21.0069C20 24.294 22.5575 26.9552 25.7088 26.9552C28.8601 26.9552 31.4176 24.2903 31.4176 21.0069C31.4176 17.7234 28.8601 15.0586 25.7088 15.0586ZM25.7088 23.8914C24.1806 23.8914 22.9405 22.5992 22.9405 21.0069C22.9405 19.4146 24.1806 18.1224 25.7088 18.1224C27.237 18.1224 28.4771 19.4146 28.4771 21.0069C28.4771 22.5992 27.237 23.8914 25.7088 23.8914Z" fill="#64C243"/>
<path d="M43.582 14.7832H41.6217C41.3512 14.7832 41.1334 15.0102 41.1334 15.292V15.8045C40.3148 15.3286 39.3698 15.0577 38.365 15.0577C35.2103 15.0577 32.6562 17.7189 32.6562 21.006C32.6562 24.2932 35.2103 26.9543 38.365 26.9543C39.3698 26.9543 40.3148 26.6798 41.1334 26.2076V26.5553C41.1334 28.1477 39.8932 29.4398 38.365 29.4398C37.3392 29.4398 36.4469 28.8578 35.9691 27.9939C35.8321 27.7523 35.5335 27.6681 35.3016 27.8109L33.6048 28.8322C33.3799 28.9676 33.2991 29.2604 33.4116 29.4947C34.3952 31.2884 36.2431 32.5 38.3686 32.5C41.5198 32.5 44.0774 29.8388 44.0774 26.5553V15.2957C44.0774 15.0138 43.8595 14.7869 43.589 14.7869L43.582 14.7832ZM38.365 23.8905C36.8368 23.8905 35.5967 22.5983 35.5967 21.006C35.5967 19.4137 36.8368 18.1216 38.365 18.1216C39.8932 18.1216 41.1334 19.4137 41.1334 21.006C41.1334 22.5983 39.8932 23.8905 38.365 23.8905Z" fill="#64C243"/>
<path d="M63.9607 14.4767H61.9899V11.3213C61.9899 11.0395 61.7721 10.8125 61.5016 10.8125H59.5412C59.2707 10.8125 59.0529 11.0395 59.0529 11.3213V14.4767H57.0821C56.8116 14.4767 56.5938 14.7036 56.5938 14.9855V17.028C56.5938 17.3099 56.8116 17.5368 57.0821 17.5368H59.0529V23.5107C59.0529 25.2385 60.3984 26.6441 62.0566 26.6441H63.6902C63.9607 26.6441 64.1821 26.4135 64.1821 26.1353V24.0928C64.1821 23.8109 63.9642 23.5803 63.6902 23.5803H62.0566C62.0215 23.5803 61.9899 23.551 61.9899 23.5107V17.5368H63.9607C64.2312 17.5368 64.4491 17.3099 64.4491 17.028V14.9855C64.4491 14.7036 64.2312 14.4767 63.9607 14.4767Z" fill="#64C243"/>
<path d="M56.0747 20.9503L53.5734 22.1656C53.1448 23.1795 52.1717 23.8896 51.0404 23.8896C50.3132 23.8896 49.6528 23.5968 49.1574 23.1173L55.4705 20.0498C56.0115 19.7899 56.5384 19.53 56.3768 18.9333C55.5688 16.6748 53.4891 15.0605 51.0369 15.0605C47.8822 15.0605 45.3281 17.7217 45.3281 21.0088C45.3281 24.296 47.8822 26.9571 51.0369 26.9571C54.1917 26.9571 56.6228 24.4131 56.7352 21.2321C56.7106 20.9832 56.4541 20.7709 56.0747 20.9576V20.9503ZM48.2686 21.0052C48.2686 19.4129 49.5087 18.1207 51.0369 18.1207C51.7641 18.1207 52.4281 18.4172 52.9199 18.8967L48.2756 21.1516C48.2756 21.104 48.2686 21.0564 48.2686 21.0052Z" fill="#64C243"/>
<path d="M87.5208 20.9503L85.0195 22.1656C84.5909 23.1795 83.6178 23.8896 82.4865 23.8896C81.7593 23.8896 81.0989 23.5968 80.6035 23.1173L86.9201 20.0498C87.4611 19.7899 87.9881 19.53 87.83 18.9333C87.022 16.6748 84.9422 15.0605 82.49 15.0605C79.3388 15.0605 76.7812 17.7217 76.7812 21.0088C76.7812 24.296 79.3388 26.9571 82.49 26.9571C85.6413 26.9571 88.0759 24.4131 88.1848 21.2321C88.1602 20.9832 87.9037 20.7709 87.5243 20.9576L87.5208 20.9503ZM79.7182 21.0052C79.7182 19.4129 80.9583 18.1207 82.4865 18.1207C83.2137 18.1207 83.8777 18.4172 84.3696 18.8967L79.7252 21.1516C79.7252 21.104 79.7182 21.0564 79.7182 21.0052Z" fill="#64C243"/>
<path d="M70.813 15.0584C70.1736 15.0584 69.5623 15.1939 69.0073 15.4318V11.3174C69.0073 11.0355 68.7895 10.8086 68.5189 10.8086H66.5586C66.2881 10.8086 66.0703 11.0355 66.0703 11.3174V26.1314C66.0703 26.4133 66.2881 26.6402 66.5586 26.6402H68.5189C68.7895 26.6402 69.0073 26.4096 69.0073 26.1314V20.0001C69.0073 18.9605 69.8153 18.1186 70.813 18.1186C71.8107 18.1186 72.6187 18.9605 72.6187 20.0001V26.1314C72.6187 26.4133 72.8365 26.6402 73.1106 26.6402H75.0709C75.3414 26.6402 75.5592 26.4096 75.5592 26.1314V20.0001C75.5592 17.2694 73.4338 15.0548 70.813 15.0548V15.0584Z" fill="#64C243"/>
<path d="M98.0303 16.2474C97.2012 15.508 96.1262 15.0577 94.9493 15.0577C94.3099 15.0577 93.7022 15.1932 93.1436 15.4311V15.292C93.1436 15.0102 92.9258 14.7832 92.6518 14.7832H90.6914C90.4209 14.7832 90.2031 15.0102 90.2031 15.292V26.1344C90.2031 26.4162 90.4209 26.6432 90.6914 26.6432H92.6518C92.9223 26.6432 93.1436 26.4126 93.1436 26.1344V20.0031C93.1436 18.9635 93.9516 18.1216 94.9493 18.1216C95.3955 18.1216 95.7995 18.2936 96.1157 18.5718V18.5608C96.3194 18.7402 96.6286 18.7146 96.8007 18.4949L98.0584 16.9319C98.2235 16.7269 98.206 16.4304 98.0268 16.2474H98.0303Z" fill="#64C243"/>
<path d="M14.8225 8.91518C14.8225 8.91518 11.7766 6.8104 7.60654 6.8104C3.43649 6.8104 0.390625 8.38441 0.390625 8.38441C0.390625 8.38441 1.99963 4.27734 7.82084 4.27734C12.2157 4.27734 14.8225 7.70722 14.8225 7.70722C14.8225 7.70722 17.4292 4.27734 21.8241 4.27734C27.6488 4.27734 29.2578 8.38441 29.2578 8.38441C29.2578 8.38441 26.2119 6.8104 22.0419 6.8104C17.8718 6.8104 14.826 8.91518 14.826 8.91518H14.8225Z" fill="#64C243"/>
<path d="M18.5878 1.24349C21.6547 -0.429358 24.4371 1.24349 24.4371 1.24349C24.4371 1.24349 21.9147 1.40821 19.2307 3.02248C16.5467 4.63676 15.1484 6.82939 15.1484 6.82939C15.1484 6.82939 15.5173 2.91267 18.5878 1.23983V1.24349Z" fill="#64C243"/>
<path d="M22.1217 8.86762C19.5044 7.2387 16.4375 8.7761 16.4375 8.7761C16.4375 8.7761 18.5524 8.51621 21.1099 10.0646C23.671 11.613 24.4263 13.586 24.4263 13.586C24.4263 13.586 24.739 10.4965 22.1217 8.87128V8.86762Z" fill="#64C243"/>
<path d="M7.52286 8.86762C10.1401 7.2387 13.2071 8.7761 13.2071 8.7761C13.2071 8.7761 11.0922 8.51621 8.53112 10.0646C5.97358 11.613 5.21475 13.586 5.21475 13.586C5.21475 13.586 4.90209 10.4965 7.51935 8.87128L7.52286 8.86762Z" fill="#64C243"/>
<path d="M13.7214 7.71094L11.747 25.5229C11.6908 26.1378 12.1334 26.643 12.7272 26.643H16.9148C17.5085 26.643 17.9511 26.1378 17.8949 25.5229L15.9241 7.71094H13.7214Z" fill="#64C243"/>
<path d="M11.0524 1.24349C7.9855 -0.429358 5.20312 1.24349 5.20312 1.24349C5.20312 1.24349 7.72553 1.40821 10.4095 3.02248C13.0936 4.63676 14.4918 6.82939 14.4918 6.82939C14.4918 6.82939 14.1229 2.91267 11.0524 1.23983V1.24349Z" fill="#64C243"/>
</g>
<defs>
<clipPath id="clip0_587_21013">
<rect width="165" height="32" fill="white" transform="translate(0.390625 0.5)"/>
</clipPath>
</defs>
</svg>
