<svg xmlns="http://www.w3.org/2000/svg" width="24" height="24" fill="none" viewBox="0 0 24 24">
  <g clip-path="url(#a)">
    <path fill="#8F948B" d="M5 0a5 5 0 0 0-5 5v1h24V5a5 5 0 0 0-5-5H5ZM0 19V8h24v11a5 5 0 0 1-5 5H5a5 5 0 0 1-5-5Zm6.5-5a1.5 1.5 0 1 0 0-3 1.5 1.5 0 0 0 0 3ZM8 17.5a1.5 1.5 0 1 0-3 0 1.5 1.5 0 0 0 3 0Zm4 1.5a1.5 1.5 0 1 0 0-3 1.5 1.5 0 0 0 0 3Zm1.5-6.5a1.5 1.5 0 1 0-3 0 1.5 1.5 0 0 0 3 0Zm4 1.5a1.5 1.5 0 1 0 0-3 1.5 1.5 0 0 0 0 3Z"/>
  </g>
  <defs>
    <clipPath id="a">
      <path fill="#fff" d="M0 0h24v24H0z"/>
    </clipPath>
  </defs>
</svg>