<svg xmlns="http://www.w3.org/2000/svg" style="display: none;">
  <!-- 화면 상단 아이콘들 -->
    <symbol id="calendarIcon">
        <svg width="26" height="26" viewBox="0 0 26 26" fill="none" xmlns="http://www.w3.org/2000/svg">
          <path d="M12.8906 15.5C13.1379 15.5 13.3795 15.4267 13.5851 15.2893C13.7906 15.152 13.9509 14.9568 14.0455 14.7284C14.1401 14.4999 14.1648 14.2486 14.1166 14.0061C14.0684 13.7637 13.9493 13.5409 13.7745 13.3661C13.5997 13.1913 13.377 13.0722 13.1345 13.024C12.892 12.9758 12.6407 13.0005 12.4123 13.0952C12.1839 13.1898 11.9886 13.35 11.8513 13.5555C11.7139 13.7611 11.6406 14.0028 11.6406 14.25C11.6406 14.5815 11.7723 14.8995 12.0067 15.1339C12.2412 15.3683 12.5591 15.5 12.8906 15.5ZM19.1406 15.5C19.3879 15.5 19.6295 15.4267 19.8351 15.2893C20.0406 15.152 20.2009 14.9568 20.2955 14.7284C20.3901 14.4999 20.4148 14.2486 20.3666 14.0061C20.3184 13.7637 20.1993 13.5409 20.0245 13.3661C19.8497 13.1913 19.627 13.0722 19.3845 13.024C19.142 12.9758 18.8907 13.0005 18.6623 13.0952C18.4339 13.1898 18.2386 13.35 18.1013 13.5555C17.9639 13.7611 17.8906 14.0028 17.8906 14.25C17.8906 14.4142 17.923 14.5769 17.9859 14.7286C18.0488 14.8803 18.1409 15.0182 18.2571 15.1342C18.3733 15.2503 18.5112 15.3424 18.663 15.4051C18.8147 15.4679 18.9764 15.5001 19.1406 15.5ZM12.8906 20.5C13.1379 20.5 13.3795 20.4267 13.5851 20.2893C13.7906 20.152 13.9509 19.9568 14.0455 19.7284C14.1401 19.4999 14.1648 19.2486 14.1166 19.0061C14.0684 18.7637 13.9493 18.5409 13.7745 18.3661C13.5997 18.1913 13.377 18.0723 13.1345 18.024C12.892 17.9758 12.6407 18.0005 12.4123 18.0951C12.1839 18.1898 11.9886 18.35 11.8513 18.5555C11.7139 18.7611 11.6406 19.0028 11.6406 19.25C11.6406 19.5815 11.7723 19.8995 12.0067 20.1339C12.2412 20.3683 12.5591 20.5 12.8906 20.5ZM19.1406 20.5C19.3879 20.5 19.6295 20.4267 19.8351 20.2893C20.0406 20.152 20.2009 19.9568 20.2955 19.7284C20.3901 19.4999 20.4148 19.2486 20.3666 19.0061C20.3184 18.7637 20.1993 18.5409 20.0245 18.3661C19.8497 18.1913 19.627 18.0723 19.3845 18.024C19.142 17.9758 18.8907 18.0005 18.6623 18.0951C18.4339 18.1898 18.2386 18.35 18.1013 18.5555C17.9639 18.7611 17.8906 19.0028 17.8906 19.25C17.8906 19.4142 17.923 19.5769 17.9859 19.7286C18.0488 19.8803 18.1409 20.0182 18.2571 20.1342C18.3733 20.2503 18.5112 20.3424 18.663 20.4051C18.8147 20.4679 18.9764 20.5001 19.1406 20.5ZM6.64062 15.5C6.88785 15.5 7.12953 15.4267 7.33509 15.2893C7.54065 15.152 7.70086 14.9568 7.79547 14.7284C7.89008 14.4999 7.91484 14.2486 7.86661 14.0061C7.81838 13.7637 7.69932 13.5409 7.52451 13.3661C7.34969 13.1913 7.12696 13.0722 6.88449 13.024C6.64201 12.9758 6.39068 13.0005 6.16227 13.0952C5.93386 13.1898 5.73864 13.35 5.60129 13.5555C5.46394 13.7611 5.39062 14.0028 5.39062 14.25C5.39062 14.5815 5.52232 14.8995 5.75674 15.1339C5.99116 15.3683 6.3091 15.5 6.64062 15.5ZM21.6406 3H20.3906V1.75C20.3906 1.41848 20.2589 1.10054 20.0245 0.866117C19.7901 0.631696 19.4721 0.5 19.1406 0.5C18.8091 0.5 18.4912 0.631696 18.2567 0.866117C18.0223 1.10054 17.8906 1.41848 17.8906 1.75V3H7.89062V1.75C7.89062 1.41848 7.75893 1.10054 7.52451 0.866117C7.29009 0.631696 6.97215 0.5 6.64062 0.5C6.3091 0.5 5.99116 0.631696 5.75674 0.866117C5.52232 1.10054 5.39062 1.41848 5.39062 1.75V3H4.14062C3.14606 3 2.19224 3.39509 1.48897 4.09835C0.785713 4.80161 0.390625 5.75544 0.390625 6.75V21.75C0.390625 22.7446 0.785713 23.6984 1.48897 24.4017C2.19224 25.1049 3.14606 25.5 4.14062 25.5H21.6406C22.6352 25.5 23.589 25.1049 24.2923 24.4017C24.9955 23.6984 25.3906 22.7446 25.3906 21.75V6.75C25.3906 5.75544 24.9955 4.80161 24.2923 4.09835C23.589 3.39509 22.6352 3 21.6406 3ZM22.8906 21.75C22.8906 22.0815 22.7589 22.3995 22.5245 22.6339C22.2901 22.8683 21.9721 23 21.6406 23H4.14062C3.8091 23 3.49116 22.8683 3.25674 22.6339C3.02232 22.3995 2.89062 22.0815 2.89062 21.75V10.5H22.8906V21.75ZM22.8906 8H2.89062V6.75C2.89062 6.41848 3.02232 6.10054 3.25674 5.86612C3.49116 5.6317 3.8091 5.5 4.14062 5.5H21.6406C21.9721 5.5 22.2901 5.6317 22.5245 5.86612C22.7589 6.10054 22.8906 6.41848 22.8906 6.75V8ZM6.64062 20.5C6.88785 20.5 7.12953 20.4267 7.33509 20.2893C7.54065 20.152 7.70086 19.9568 7.79547 19.7284C7.89008 19.4999 7.91484 19.2486 7.86661 19.0061C7.81838 18.7637 7.69932 18.5409 7.52451 18.3661C7.34969 18.1913 7.12696 18.0723 6.88449 18.024C6.64201 17.9758 6.39068 18.0005 6.16227 18.0951C5.93386 18.1898 5.73864 18.35 5.60129 18.5555C5.46394 18.7611 5.39062 19.0028 5.39062 19.25C5.39062 19.5815 5.52232 19.8995 5.75674 20.1339C5.99116 20.3683 6.3091 20.5 6.64062 20.5Z" fill="#BDBDBD"/>
        </svg>
    </symbol>

    <symbol id="bellIcon">
      <svg width="23" height="26" viewBox="0 0 23 26" fill="none" xmlns="http://www.w3.org/2000/svg">
        <path d="M6.69151 20.916H2.34551C2.00103 20.9156 1.66276 20.8243 1.36487 20.6514C1.06698 20.4784 0.82003 20.2298 0.64897 19.9308C0.47791 19.6318 0.388803 19.293 0.390653 18.9485C0.392503 18.604 0.485244 18.2661 0.659506 17.969C1.33151 16.814 2.13251 14.615 2.13251 10.708V9.792C2.13093 8.57224 2.36983 7.36413 2.83555 6.23678C3.30127 5.10943 3.98467 4.08495 4.84666 3.22194C5.70865 2.35892 6.73232 1.67431 7.85912 1.20726C8.98592 0.740202 10.1937 0.499868 11.4135 0.5H11.4705C13.9312 0.541532 16.2764 1.5507 17.9984 3.30896C19.7203 5.06721 20.6803 7.43301 20.6705 9.894V10.707C20.6705 14.615 21.4705 16.814 22.1445 17.972C22.318 18.269 22.4101 18.6065 22.4116 18.9504C22.4131 19.2944 22.324 19.6326 22.1531 19.9311C21.9823 20.2296 21.7358 20.4778 21.4384 20.6508C21.1411 20.8237 20.8035 20.9151 20.4595 20.916H16.1065C16.0811 22.1473 15.5742 23.3196 14.6944 24.1815C13.8146 25.0433 12.6321 25.526 11.4005 25.526C10.1689 25.526 8.98642 25.0433 8.10663 24.1815C7.22685 23.3196 6.71989 22.1473 6.69451 20.916H6.69151ZM11.3975 23.416C12.0719 23.4153 12.7203 23.1554 13.2085 22.6901C13.6967 22.2248 13.9874 21.5896 14.0205 20.916H8.77651C8.80911 21.5904 9.09985 22.2264 9.5885 22.6924C10.0772 23.1583 10.7263 23.4185 11.4015 23.419L11.3975 23.416ZM6.33451 4.677C4.97899 6.03367 4.21632 7.8722 4.21351 9.79V10.708C4.21351 14.89 3.33951 17.415 2.56151 18.833H20.2435C19.4645 17.416 18.5895 14.892 18.5895 10.706V9.894C18.6012 7.98168 17.859 6.14176 16.5237 4.77279C15.1884 3.40381 13.3675 2.616 11.4555 2.58H11.4125C9.51035 2.58608 7.68671 3.33917 6.33451 4.677Z" fill="#BDBDBD"/>
      </svg>
    </symbol>

    <symbol id="messageIcon">
      <svg width="26" height="26" viewBox="0 0 26 26" fill="none" xmlns="http://www.w3.org/2000/svg">
        <path d="M6.63363 0.5C4.97869 0.502645 3.3923 1.16123 2.22208 2.33145C1.05186 3.50167 0.39327 5.08806 0.390625 6.743V14.33C0.394764 15.8004 0.917701 17.2222 1.86731 18.3448C2.81692 19.4675 4.13227 20.219 5.58162 20.467L5.53363 24.447C5.53163 24.6435 5.5852 24.8366 5.68819 25.0041C5.79117 25.1715 5.93936 25.3064 6.11568 25.3932C6.292 25.4801 6.48928 25.5154 6.68478 25.495C6.88027 25.4746 7.06602 25.3994 7.22062 25.278L13.2056 20.578H19.0636C20.7187 20.5753 22.3053 19.9166 23.4755 18.7462C24.6458 17.5758 25.3042 15.9891 25.3066 14.334V6.743C25.304 5.08806 24.6454 3.50167 23.4752 2.33145C22.305 1.16123 20.7186 0.502645 19.0636 0.5H6.63363ZM6.63363 2.586H19.0636C19.6108 2.58174 20.1533 2.68633 20.6596 2.89372C21.1659 3.10111 21.626 3.40714 22.0129 3.79399C22.3999 4.18084 22.706 4.6408 22.9135 5.14708C23.121 5.65336 23.2258 6.19586 23.2216 6.743V14.33C23.2259 14.8772 23.1212 15.4198 22.9138 15.9262C22.7063 16.4326 22.4002 16.8927 22.0133 17.2796C21.6263 17.6666 21.1662 17.9727 20.6598 18.1802C20.1535 18.3876 19.6108 18.4923 19.0636 18.488H12.8466C12.613 18.4881 12.3863 18.5667 12.2026 18.711L7.64462 22.294L7.67262 19.541C7.67394 19.4035 7.64807 19.2671 7.5965 19.1397C7.54492 19.0123 7.46866 18.8963 7.3721 18.7984C7.27555 18.7006 7.16059 18.6228 7.03386 18.5695C6.90712 18.5162 6.7711 18.4885 6.63363 18.488C6.0864 18.4923 5.5438 18.3876 5.0374 18.1802C4.531 17.9727 4.07094 17.6666 3.68398 17.2796C3.29702 16.8927 2.99091 16.4326 2.78345 15.9262C2.576 15.4198 2.47136 14.8772 2.47563 14.33V6.743C2.4711 6.1956 2.57554 5.65278 2.78287 5.14615C2.9902 4.63952 3.29628 4.17922 3.68326 3.79205C4.07024 3.40488 4.5304 3.09858 5.03693 2.89101C5.54346 2.68343 6.08623 2.57873 6.63363 2.58299V2.586ZM6.81662 6.72299C6.54 6.72299 6.27471 6.83287 6.07911 7.02847C5.88351 7.22407 5.77362 7.48937 5.77362 7.76599C5.77362 8.04261 5.88351 8.30791 6.07911 8.50351C6.27471 8.69911 6.54 8.80899 6.81662 8.80899H18.8806C19.1572 8.80899 19.4225 8.69911 19.6181 8.50351C19.8137 8.30791 19.9236 8.04261 19.9236 7.76599C19.9236 7.48937 19.8137 7.22407 19.6181 7.02847C19.4225 6.83287 19.1572 6.72299 18.8806 6.72299H6.81662ZM6.81662 11.49C6.677 11.4857 6.53794 11.5094 6.40768 11.5599C6.27742 11.6103 6.15862 11.6864 6.05833 11.7836C5.95804 11.8809 5.8783 11.9973 5.82385 12.1259C5.76939 12.2545 5.74133 12.3928 5.74133 12.5325C5.74133 12.6722 5.76939 12.8104 5.82385 12.9391C5.8783 13.0677 5.95804 13.1841 6.05833 13.2813C6.15862 13.3786 6.27742 13.4547 6.40768 13.5051C6.53794 13.5556 6.677 13.5793 6.81662 13.575H14.5476C14.6872 13.5793 14.8263 13.5556 14.9566 13.5051C15.0868 13.4547 15.2056 13.3786 15.3059 13.2813C15.4062 13.1841 15.486 13.0677 15.5404 12.9391C15.5949 12.8104 15.6229 12.6722 15.6229 12.5325C15.6229 12.3928 15.5949 12.2545 15.5404 12.1259C15.486 11.9973 15.4062 11.8809 15.3059 11.7836C15.2056 11.6864 15.0868 11.6103 14.9566 11.5599C14.8263 11.5094 14.6872 11.4857 14.5476 11.49H6.81662Z" fill="#BDBDBD"/>
        </svg>
    </symbol>

    <symbol id="searchIcon">
      <svg width="22" height="22" viewBox="0 0 22 22" fill="none" xmlns="http://www.w3.org/2000/svg">
        <path fill-rule="evenodd" clip-rule="evenodd" d="M5.51456 3.66521C6.68205 2.88512 8.05464 2.46875 9.45877 2.46875C11.3416 2.46887 13.1473 3.21687 14.4787 4.54823C15.81 5.8796 16.558 7.68527 16.5582 9.5681C16.5582 10.9722 16.1418 12.3449 15.3617 13.5124C14.5816 14.6798 13.4728 15.5898 12.1756 16.1271C10.8783 16.6645 9.4509 16.8051 8.07375 16.5311C6.6966 16.2572 5.43161 15.581 4.43874 14.5882C3.44587 13.5953 2.76972 12.3303 2.49579 10.9532C2.22186 9.57602 2.36245 8.14857 2.89979 6.85132C3.43712 5.55408 4.34707 4.44531 5.51456 3.66521ZM9.45873 3.78125C8.31421 3.78126 7.19538 4.12065 6.24375 4.75652C5.2921 5.39239 4.55038 6.29618 4.11238 7.3536C3.67438 8.41101 3.55978 9.57456 3.78307 10.6971C4.00636 11.8197 4.55751 12.8508 5.36682 13.6601C6.17613 14.4694 7.20726 15.0206 8.32981 15.2438C9.45235 15.4671 10.6159 15.3525 11.6733 14.9145C12.7307 14.4765 13.6345 13.7348 14.2704 12.7832C14.9063 11.8315 15.2457 10.7127 15.2457 9.56819M9.45873 3.78125C10.9935 3.78136 12.4654 4.39108 13.5506 5.47631C14.6358 6.56154 15.2456 8.03344 15.2457 9.56819" fill="#ACACB3"/>
        <path d="M9.45877 2.46875C8.05464 2.46875 6.68205 2.88512 5.51456 3.66521C4.34707 4.44531 3.43712 5.55408 2.89979 6.85132C2.36245 8.14857 2.22186 9.57602 2.49579 10.9532C2.76972 12.3303 3.44587 13.5953 4.43874 14.5882C5.43161 15.581 6.6966 16.2572 8.07375 16.5311C9.4509 16.8051 10.8783 16.6645 12.1756 16.1271C13.4728 15.5898 14.5816 14.6798 15.3617 13.5124C16.1418 12.3449 16.5582 10.9722 16.5582 9.5681C16.558 7.68527 15.81 5.8796 14.4787 4.54823C13.1473 3.21687 11.3416 2.46887 9.45877 2.46875ZM6.24375 4.75652C7.19538 4.12065 8.31421 3.78126 9.45873 3.78125C10.9935 3.78136 12.4654 4.39108 13.5506 5.47631C14.6358 6.56154 15.2456 8.03344 15.2457 9.56819C15.2457 10.7127 14.9063 11.8315 14.2704 12.7832C13.6345 13.7348 12.7307 14.4765 11.6733 14.9145C10.6159 15.3525 9.45235 15.4671 8.32981 15.2438C7.20726 15.0206 6.17613 14.4694 5.36682 13.6601C4.55751 12.8508 4.00636 11.8197 3.78307 10.6971C3.55978 9.57456 3.67438 8.41101 4.11238 7.3536C4.55038 6.29618 5.2921 5.39239 6.24375 4.75652Z" stroke="#ACACB3" stroke-width="1.06667" stroke-miterlimit="10"/>
        <path fill-rule="evenodd" clip-rule="evenodd" d="M13.8016 13.911C14.0579 13.6547 14.4734 13.6547 14.7297 13.911L19.2295 18.4108C19.4858 18.6671 19.4858 19.0826 19.2295 19.3389C18.9732 19.5951 18.5577 19.5951 18.3014 19.3389L13.8016 14.839C13.5453 14.5828 13.5453 14.1672 13.8016 13.911Z" fill="#ACACB3" stroke="#ACACB3" stroke-width="1.06667" stroke-miterlimit="10" stroke-linecap="round"/>
      </svg>
    </symbol>

<!-- 소셜 사이트 아이콘들 -->
    <symbol id="blogIcon">
      <svg width="27" height="25" viewBox="0 0 27 25" fill="none" xmlns="http://www.w3.org/2000/svg">
        <path d="M6.0665 9.65039C5.89265 9.65039 5.72271 9.70194 5.57816 9.79852C5.43361 9.89511 5.32096 10.0324 5.25443 10.193C5.1879 10.3536 5.17047 10.5304 5.20438 10.7009C5.2383 10.8714 5.32199 11.028 5.44492 11.1509C5.56785 11.2739 5.72449 11.3576 5.895 11.3915C6.0655 11.4254 6.24225 11.408 6.40287 11.3415C6.56349 11.275 6.70075 11.1623 6.79734 11.0177C6.89393 10.8732 6.94547 10.7032 6.94547 10.5294C6.94521 10.2963 6.85251 10.0729 6.68772 9.90814C6.52293 9.74335 6.29955 9.65066 6.0665 9.65039Z" fill="#ACACB3"/>
        <path d="M14.7449 9.56055C14.5575 9.56035 14.3743 9.61575 14.2184 9.71973C14.0625 9.82371 13.941 9.9716 13.8692 10.1447C13.7974 10.3178 13.7785 10.5083 13.815 10.6921C13.8515 10.8759 13.9417 11.0447 14.0742 11.1772C14.2067 11.3097 14.3756 11.3999 14.5593 11.4364C14.7431 11.4729 14.9337 11.4541 15.1068 11.3823C15.2799 11.3105 15.4277 11.1889 15.5317 11.0331C15.6357 10.8772 15.6911 10.6939 15.6909 10.5066C15.691 10.3823 15.6667 10.2592 15.6192 10.1444C15.5717 10.0295 15.502 9.92521 15.4141 9.83734C15.3262 9.74947 15.2219 9.67979 15.1071 9.63229C14.9922 9.5848 14.8692 9.56042 14.7449 9.56055Z" fill="#ACACB3"/>
        <path d="M22.6062 0.916016H3.90619C3.00082 0.916281 2.13262 1.27604 1.49243 1.91623C0.85224 2.55642 0.492453 3.42465 0.492188 4.33002V15.43C0.492187 16.3356 0.851845 17.204 1.49207 17.8444C2.13229 18.4848 3.00065 18.8447 3.90619 18.845H10.5062L12.7522 24.136C12.7522 24.136 12.9072 24.595 13.2812 24.595C13.6562 24.595 13.8102 24.136 13.8102 24.136L16.0562 18.845H22.5982C23.5039 18.845 24.3725 18.4852 25.0129 17.8448C25.6534 17.2044 26.0132 16.3357 26.0132 15.43V4.33002C26.0129 3.42586 25.6541 2.55869 25.0154 1.9187C24.3768 1.27871 23.5104 0.918134 22.6062 0.916016ZM8.51617 10.724C8.50883 11.2788 8.28371 11.8084 7.88934 12.1987C7.49498 12.5889 6.96301 12.8085 6.4082 12.81C6.17138 12.8109 5.93679 12.7637 5.71869 12.6714C5.50058 12.5791 5.30344 12.4436 5.13916 12.273V12.638H3.61218V6.33801C3.60518 6.33801 3.60618 6.33801 3.61218 6.33801C3.71218 6.35301 5.13916 6.33801 5.13916 6.33801V8.74701C5.49816 8.13501 6.53918 8.147 6.53918 8.147C6.8415 8.17854 7.13423 8.27137 7.39948 8.4198C7.66472 8.56823 7.8969 8.76916 8.08191 9.01031C8.26692 9.25147 8.40086 9.52781 8.47552 9.82245C8.55019 10.1171 8.56401 10.4238 8.51617 10.724ZM11.2042 8.336V12.649H9.71021V8.38C9.71021 7.79901 8.9892 7.63702 8.9892 7.63702V6.13202C9.28478 6.10992 9.58167 6.15169 9.85968 6.25449C10.1377 6.35728 10.3903 6.51868 10.6005 6.72775C10.8106 6.93682 10.9732 7.18866 11.0774 7.46616C11.1816 7.74366 11.2248 8.04031 11.2042 8.336ZM14.7482 12.813C14.3 12.7759 13.8723 12.6091 13.5174 12.3329C13.1625 12.0566 12.8957 11.683 12.7496 11.2577C12.6036 10.8323 12.5846 10.3737 12.695 9.93768C12.8054 9.50171 13.0404 9.10733 13.3713 8.80273C13.7021 8.49814 14.1146 8.2965 14.5582 8.22247C15.0018 8.14845 15.4573 8.20523 15.8691 8.38589C16.281 8.56656 16.6313 8.86327 16.8773 9.23978C17.1232 9.61628 17.2542 10.0563 17.2542 10.506C17.2267 11.1446 16.9469 11.7461 16.4763 12.1786C16.0057 12.6111 15.3828 12.8393 14.7442 12.813H14.7482ZM22.9372 12.813C22.9454 13.1037 22.894 13.393 22.7863 13.6632C22.6785 13.9333 22.5166 14.1785 22.3105 14.3838C22.1044 14.589 21.8585 14.7499 21.588 14.8566C21.3174 14.9632 21.0279 15.0134 20.7372 15.004H20.0592V13.585H20.4682C20.4682 13.585 21.4032 13.671 21.3932 12.23C21.3932 12.23 21.2102 12.813 19.8982 12.813C19.3986 12.7851 18.9284 12.5681 18.5829 12.2061C18.2375 11.8442 18.0428 11.3643 18.0382 10.864V10.175C18.0618 9.63438 18.2908 9.12311 18.6784 8.74551C19.066 8.36791 19.5831 8.15242 20.1242 8.14301C20.3719 8.12643 20.6198 8.1707 20.8464 8.27197C21.073 8.37325 21.2714 8.52844 21.4242 8.724V8.26102H22.9402L22.9372 12.813Z" fill="#ACACB3"/>
        <path d="M20.5656 9.58008C20.3827 9.58008 20.2038 9.63432 20.0517 9.73596C19.8996 9.8376 19.781 9.98207 19.711 10.1511C19.641 10.3201 19.6227 10.5061 19.6584 10.6855C19.6941 10.8649 19.7822 11.0298 19.9115 11.1591C20.0409 11.2885 20.2057 11.3766 20.3852 11.4123C20.5646 11.448 20.7506 11.4297 20.9196 11.3596C21.0886 11.2896 21.2331 11.1711 21.3347 11.019C21.4364 10.8668 21.4906 10.688 21.4906 10.5051C21.4906 10.2597 21.3932 10.0245 21.2197 9.85098C21.0462 9.67751 20.811 9.58008 20.5656 9.58008Z" fill="#ACACB3"/>
      </svg>
    </symbol>

    <symbol id="insIcon">
      <svg width="23" height="23" viewBox="0 0 23 23" fill="none" xmlns="http://www.w3.org/2000/svg">
        <path d="M16.9908 0.916016H5.62677C4.29202 0.916281 3.01199 1.44663 2.06818 2.39044C1.12436 3.33425 0.594015 4.61425 0.59375 5.94901V17.311C0.594015 18.6459 1.1243 19.9261 2.06805 20.8703C3.01181 21.8144 4.29183 22.3452 5.62677 22.346H16.9897C18.3248 22.3454 19.605 21.8148 20.5488 20.8706C21.4926 19.9264 22.0228 18.646 22.0228 17.311V5.94901C22.0228 4.61434 21.4927 3.33434 20.549 2.3905C19.6054 1.44666 18.3254 0.916281 16.9908 0.916016ZM11.3088 18.444C9.96101 18.4442 8.64341 18.0447 7.52271 17.2961C6.402 16.5474 5.52849 15.4832 5.01263 14.2381C4.49677 12.9929 4.36175 11.6228 4.62463 10.3009C4.88752 8.97905 5.53655 7.76481 6.48956 6.8118C7.44258 5.85878 8.65676 5.20979 9.97864 4.9469C11.3005 4.68401 12.6707 4.81901 13.9158 5.33487C15.161 5.85073 16.2252 6.72429 16.9738 7.845C17.7225 8.96571 18.122 10.2832 18.1218 11.631C18.1218 13.4379 17.404 15.1708 16.1263 16.4485C14.8486 17.7262 13.1157 18.444 11.3088 18.444ZM18.3528 6.14401C18.0389 6.14381 17.7322 6.05057 17.4714 5.87607C17.2105 5.70157 17.0072 5.45364 16.8873 5.16364C16.7673 4.87363 16.736 4.55458 16.7974 4.2468C16.8587 3.93901 17.0099 3.65632 17.2319 3.43448C17.4539 3.21263 17.7367 3.06158 18.0445 3.00043C18.3523 2.93927 18.6714 2.97077 18.9613 3.09091C19.2512 3.21106 19.4991 3.41446 19.6734 3.67542C19.8477 3.93637 19.9407 4.24317 19.9407 4.55701C19.9402 4.97782 19.7727 5.38121 19.4749 5.67859C19.1772 5.97596 18.7736 6.14301 18.3528 6.14301V6.14401Z" fill="#ACACB3"/>
        <path d="M11.3076 7.20898C10.434 7.20918 9.58005 7.46838 8.85371 7.95383C8.12737 8.43927 7.56126 9.12918 7.22694 9.93631C6.89262 10.7434 6.80508 11.6316 6.97542 12.4884C7.14575 13.3453 7.5663 14.1324 8.18391 14.7503C8.80152 15.3682 9.58848 15.7891 10.4453 15.9598C11.302 16.1305 12.1902 16.0434 12.9974 15.7094C13.8047 15.3755 14.4949 14.8097 14.9807 14.0836C15.4664 13.3575 15.726 12.5036 15.7266 11.63C15.7268 11.0495 15.6126 10.4748 15.3906 9.93845C15.1686 9.40214 14.8431 8.9148 14.4328 8.50427C14.0224 8.09374 13.5352 7.76808 12.999 7.54584C12.4628 7.32359 11.8881 7.20912 11.3076 7.20898Z" fill="#ACACB3"/>
      </svg>
    </symbol>

    <symbol id="youtubeIcon">
      <svg width="27" height="20" viewBox="0 0 27 20" fill="none" xmlns="http://www.w3.org/2000/svg">
        <path d="M22.9517 1.24701C21.9737 1.10101 17.2668 0.916016 13.5278 0.916016C9.78877 0.916016 5.08573 1.10201 4.10773 1.24701C3.3196 1.3101 2.57781 1.64477 2.00897 2.19391C1.44014 2.74305 1.07958 3.47261 0.98877 4.25803C0.748287 6.14121 0.616383 8.03665 0.59375 9.935V10.241C0.616395 12.1417 0.748299 14.0395 0.98877 15.925C1.07993 16.7098 1.44076 17.4386 2.00964 17.9869C2.57852 18.5351 3.3201 18.8689 4.10773 18.931C5.08573 19.077 9.79772 19.259 13.5377 19.259H13.5217C17.2617 19.259 21.9717 19.073 22.9517 18.928C23.7395 18.8654 24.4812 18.5316 25.0505 17.9835C25.6197 17.4354 25.9814 16.7069 26.0737 15.922C26.311 14.0362 26.4415 12.1385 26.4647 10.238V9.93201C26.4416 8.03381 26.311 6.13845 26.0737 4.255C25.9816 3.46988 25.6201 2.74099 25.0508 2.1925C24.4816 1.64402 23.7397 1.30987 22.9517 1.24701Z" fill="#ACACB3"/>
        <path d="M26.4647 10.2419C26.4415 12.1425 26.311 14.0401 26.0737 15.9259C25.9814 16.7108 25.6197 17.4393 25.0505 17.9874C24.4812 18.5355 23.7395 18.8693 22.9517 18.9319C21.9717 19.0779 17.2617 19.2629 13.5217 19.2629H13.5377C9.79772 19.2629 5.08573 19.0799 4.10773 18.9349C3.3201 18.8728 2.57852 18.5391 2.00964 17.9908C1.44076 17.4425 1.07993 16.7137 0.98877 15.9289C0.748299 14.0434 0.616395 12.1456 0.59375 10.2449V9.93893C0.616383 8.04059 0.748287 6.14512 0.98877 4.26193C1.07958 3.47652 1.44014 2.74698 2.00897 2.19785C2.57781 1.64871 3.3196 1.31403 4.10773 1.25095C5.08573 1.10495 9.79277 0.919922 13.5278 0.919922C17.2628 0.919922 21.9727 1.10595 22.9517 1.25095C23.7402 1.31393 24.4824 1.64848 25.0518 2.19757C25.6211 2.74666 25.9823 3.47626 26.0737 4.26193C26.311 6.14538 26.4416 8.04074 26.4647 9.93893V10.2419Z" fill="#ACACB3"/>
        <path d="M10.4219 13.548L16.6219 10.156L10.4219 6.91602V13.548Z" fill="white"/>
      </svg>
    </symbol>

    <symbol id="facebookIcon">
      <svg width="10" height="21" viewBox="0 0 10 21" fill="none" xmlns="http://www.w3.org/2000/svg">
        <path d="M1.94025 20.2621H5.95825V10.5961H8.66925L9.02125 7.18208H5.95825V5.17408C5.94141 5.05471 5.95119 4.9331 5.98691 4.81794C6.02262 4.70279 6.08338 4.59697 6.16482 4.50807C6.24626 4.41917 6.34637 4.34939 6.45796 4.30375C6.56955 4.25811 6.68985 4.23775 6.81025 4.24409H8.96925V0.92909L5.99525 0.916089C5.45183 0.872996 4.90553 0.948326 4.39405 1.13688C3.88257 1.32544 3.41809 1.62274 3.03268 2.00825C2.64726 2.39376 2.35008 2.8583 2.16165 3.36982C1.97322 3.88135 1.89802 4.42767 1.94125 4.97108V7.1811H0.03125V10.5951H1.94125L1.94025 20.2621Z" fill="#ACACB3"/>
        </svg>
    </symbol>

    <symbol id="arrowRightIcon">
      <svg width="24" height="24" viewBox="0 0 24 24" fill="none" xmlns="http://www.w3.org/2000/svg">
        <g clip-path="url(#clip0_8_10559)">
          <path d="M16.01 11H4V13H16.01V16L20 12L16.01 8V11Z" fill="#73796E"/>
        </g>
        <defs>
          <clipPath id="clip0_8_10559">
            <rect width="24" height="24" fill="white"/>
          </clipPath>
        </defs>
      </svg>
    </symbol>

    <symbol id="arrowDropIcon">
      <svg xmlns="http://www.w3.org/2000/svg" width="25" height="24" viewBox="0 0 25 24" fill="none">
        <g clip-path="url(#clip0_8_10581)">
          <path d="M7.5 10L12.5 15L17.5 10H7.5Z" fill="black"/>
        </g>
        <defs>
          <clipPath id="clip0_8_10581">
            <rect width="24" height="24" fill="white" transform="translate(0.5)"/>
          </clipPath>
        </defs>
      </svg>
    </symbol>

    <symbol id="headsetIcon">
      <svg width="16" height="15" viewBox="0 0 16 15" fill="none" xmlns="http://www.w3.org/2000/svg">
        <path fill-rule="evenodd" clip-rule="evenodd" d="M13.8321 6.86916V6.59116C13.8322 5.86149 13.6886 5.13895 13.4094 4.46481C13.1302 3.79067 12.721 3.17813 12.205 2.66218C11.6891 2.14623 11.0765 1.73698 10.4024 1.45781C9.72826 1.17864 9.00572 1.03502 8.27606 1.03516H7.72006C6.24652 1.03516 4.83333 1.62052 3.79138 2.66247C2.74943 3.70442 2.16406 5.11761 2.16406 6.59116V6.86916L3.61706 7.13515L3.59606 6.24516C3.74658 5.18533 4.2745 4.21542 5.08283 3.51364C5.89116 2.81186 6.9256 2.42536 7.99606 2.42516C9.05716 2.42508 10.0833 2.80459 10.889 3.4951C11.6946 4.18561 12.2267 5.14155 12.3891 6.19016L12.4031 7.14215L13.8321 6.86916Z" fill="white"/>
        <path fill-rule="evenodd" clip-rule="evenodd" d="M13.0033 6.86914H13.8363C14.2046 6.86914 14.5579 7.01548 14.8184 7.27597C15.0789 7.53646 15.2253 7.88975 15.2253 8.25814V9.92514C15.2253 10.2935 15.0789 10.6468 14.8184 10.9073C14.5579 11.1678 14.2046 11.3141 13.8363 11.3141H13.0033V6.86914ZM3.00325 6.86914H2.17025C1.98784 6.86914 1.80722 6.90506 1.6387 6.97487C1.47018 7.04467 1.31706 7.14699 1.18808 7.27597C1.0591 7.40495 0.956786 7.55807 0.886982 7.72659C0.817178 7.89511 0.78125 8.07573 0.78125 8.25814V9.92514C0.78125 10.2935 0.92759 10.6468 1.18808 10.9073C1.44857 11.1678 1.80186 11.3141 2.17025 11.3141H3.00325V6.86914Z" fill="white"/>
        <path d="M8.55175 14.3681C9.0118 14.3681 9.38475 13.9952 9.38475 13.5351C9.38475 13.0751 9.0118 12.7021 8.55175 12.7021C8.0917 12.7021 7.71875 13.0751 7.71875 13.5351C7.71875 13.9952 8.0917 14.3681 8.55175 14.3681Z" fill="white"/>
        <path fill-rule="evenodd" clip-rule="evenodd" d="M13 6.86948C13.0001 6.79643 12.9858 6.72406 12.9579 6.65655C12.9301 6.58903 12.8891 6.52768 12.8374 6.47603C12.7858 6.42437 12.7244 6.38343 12.6569 6.35553C12.5894 6.32764 12.5171 6.31335 12.444 6.31348H12.167C12.0195 6.31348 11.8781 6.37206 11.7739 6.47633C11.6696 6.5806 11.611 6.72202 11.611 6.86948V11.3135C11.6109 11.3865 11.6252 11.4589 11.6531 11.5264C11.6809 11.5939 11.7219 11.6553 11.7736 11.7069C11.8252 11.7586 11.8866 11.7995 11.9541 11.8274C12.0216 11.8553 12.0939 11.8696 12.167 11.8695H12.445C12.5181 11.8696 12.5904 11.8553 12.6579 11.8274C12.7254 11.7995 12.7868 11.7586 12.8384 11.7069C12.8901 11.6553 12.9311 11.5939 12.9589 11.5264C12.9868 11.4589 13.0011 11.3865 13.001 11.3135L13 6.86948ZM3 6.86948C3 6.72202 3.05858 6.5806 3.16285 6.47633C3.26712 6.37206 3.40854 6.31348 3.556 6.31348H3.834C3.98146 6.31348 4.12288 6.37206 4.22715 6.47633C4.33142 6.5806 4.39 6.72202 4.39 6.86948V11.3135C4.39013 11.3865 4.37584 11.4589 4.34795 11.5264C4.32005 11.5939 4.2791 11.6553 4.22744 11.7069C4.17579 11.7586 4.11445 11.7995 4.04693 11.8274C3.97941 11.8553 3.90705 11.8696 3.834 11.8695H3.556C3.48295 11.8696 3.41059 11.8553 3.34307 11.8274C3.27556 11.7995 3.21421 11.7586 3.16256 11.7069C3.1109 11.6553 3.06995 11.5939 3.04205 11.5264C3.01416 11.4589 2.99987 11.3865 3 11.3135V6.86948Z" fill="white"/>
        <path fill-rule="evenodd" clip-rule="evenodd" d="M2.15363 7.14681H2.17963C2.25101 7.14252 2.31813 7.11136 2.36747 7.0596C2.41682 7.00784 2.44474 6.93932 2.44563 6.86781V6.59081C2.44589 5.19117 3.00208 3.84895 3.99187 2.85935C4.98166 1.86975 6.32399 1.31381 7.72363 1.31381H8.27962C9.67926 1.31381 11.0216 1.86975 12.0114 2.85935C13.0012 3.84895 13.5574 5.19117 13.5576 6.59081V6.86881C13.5576 6.87581 13.5576 6.88181 13.5576 6.88781V6.90281C13.5626 6.95831 13.5862 7.01049 13.6246 7.05081C13.6502 7.08158 13.6821 7.10645 13.7182 7.12371C13.7542 7.14098 13.7936 7.15022 13.8336 7.15081C13.9069 7.14781 13.9763 7.11715 14.0279 7.06501C14.0795 7.01287 14.1094 6.94312 14.1116 6.86981V6.59081C14.1116 5.04381 13.4971 3.56016 12.4032 2.46626C11.3093 1.37236 9.82563 0.757812 8.27863 0.757812H7.72363C6.17662 0.757813 4.69297 1.37236 3.59907 2.46626C2.50517 3.56016 1.89062 5.04381 1.89062 6.59081V6.86881C1.89062 6.87581 1.89062 6.88181 1.89062 6.88781V6.90281C1.89555 6.95831 1.91918 7.01049 1.95763 7.05081C1.98209 7.07925 2.01208 7.10243 2.04577 7.11893C2.07946 7.13543 2.11616 7.14492 2.15363 7.14681Z" fill="#64C243"/>
        <path fill-rule="evenodd" clip-rule="evenodd" d="M12.6723 6.14648C12.4995 5.0326 11.9342 4.01719 11.0783 3.28365C10.2224 2.5501 9.13249 2.14677 8.00528 2.14648C6.86757 2.14654 5.76811 2.55728 4.90903 3.30318C4.04995 4.04909 3.48899 5.08004 3.32928 6.20649C3.32277 6.27762 3.34389 6.34852 3.38826 6.4045C3.43263 6.46048 3.49684 6.49723 3.56758 6.50713C3.63832 6.51704 3.71015 6.49933 3.76819 6.45769C3.82623 6.41605 3.86601 6.35367 3.87928 6.28349C4.02041 5.28993 4.51535 4.38067 5.27316 3.72279C6.03098 3.06492 7.00075 2.70263 8.00428 2.70248C8.99898 2.70269 9.96082 3.05864 10.716 3.70601C11.4712 4.35339 11.97 5.2495 12.1223 6.23248C12.1279 6.2686 12.1406 6.30325 12.1597 6.33445C12.1787 6.36565 12.2037 6.3928 12.2332 6.41434C12.2628 6.43589 12.2962 6.4514 12.3318 6.46001C12.3673 6.46861 12.4042 6.47013 12.4403 6.46449C12.4764 6.45884 12.511 6.44613 12.5422 6.4271C12.5734 6.40806 12.6006 6.38306 12.6221 6.35353C12.6437 6.32401 12.6592 6.29052 12.6678 6.255C12.6764 6.21947 12.6779 6.1826 12.6723 6.14648ZM9.67228 13.8125H12.1723C12.6878 13.8122 13.1821 13.6073 13.5466 13.2428C13.9111 12.8783 14.116 12.384 14.1163 11.8685V11.3125C14.1163 11.2388 14.087 11.168 14.0349 11.1159C13.9827 11.0638 13.912 11.0345 13.8383 11.0345C13.7646 11.0345 13.6938 11.0638 13.6417 11.1159C13.5896 11.168 13.5603 11.2388 13.5603 11.3125V11.8685C13.5603 12.2367 13.4141 12.5898 13.1538 12.8503C12.8935 13.1108 12.5405 13.2572 12.1723 13.2575H9.67228C9.59855 13.2575 9.52784 13.2868 9.4757 13.3389C9.42357 13.391 9.39428 13.4618 9.39428 13.5355C9.39428 13.6092 9.42357 13.6799 9.4757 13.7321C9.52784 13.7842 9.59855 13.8125 9.67228 13.8125Z" fill="#64C243"/>
        <path fill-rule="evenodd" clip-rule="evenodd" d="M13 6.59084C12.9263 6.59084 12.8556 6.62013 12.8034 6.67226C12.7513 6.7244 12.722 6.79511 12.722 6.86884V11.3128C12.722 11.3866 12.7513 11.4573 12.8034 11.5094C12.8556 11.5616 12.9263 11.5908 13 11.5908H13.833C14.2751 11.5908 14.6991 11.4152 15.0117 11.1026C15.3244 10.79 15.5 10.366 15.5 9.92384V8.25684C15.5 7.81473 15.3244 7.39072 15.0117 7.07809C14.6991 6.76547 14.2751 6.58984 13.833 6.58984L13 6.59084ZM13.278 7.14684H13.834C14.1287 7.14684 14.4112 7.26389 14.6196 7.47224C14.8279 7.6806 14.945 7.96319 14.945 8.25784V9.92384C14.945 10.2185 14.8279 10.5011 14.6196 10.7094C14.4112 10.9178 14.1287 11.0348 13.834 11.0348H13.278V7.14684ZM3.278 6.86884C3.278 6.79511 3.24871 6.7244 3.19658 6.67226C3.14444 6.62013 3.07373 6.59084 3 6.59084H2.167C1.72488 6.59084 1.30088 6.76647 0.988253 7.07909C0.675629 7.39172 0.5 7.81573 0.5 8.25784V9.92384C0.5 10.366 0.675629 10.79 0.988253 11.1026C1.30088 11.4152 1.72488 11.5908 2.167 11.5908H3C3.07373 11.5908 3.14444 11.5616 3.19658 11.5094C3.24871 11.4573 3.278 11.3866 3.278 11.3128V6.86884ZM2.722 7.14684V11.0358H2.167C2.02102 11.0358 1.87647 11.0071 1.74161 10.9512C1.60675 10.8953 1.48423 10.8134 1.38105 10.7101C1.27787 10.6068 1.19606 10.4842 1.14028 10.3493C1.08451 10.2144 1.05587 10.0698 1.056 9.92384V8.25684C1.056 7.96219 1.17305 7.6796 1.3814 7.47124C1.58976 7.26289 1.87234 7.14584 2.167 7.14584L2.722 7.14684ZM8.555 12.4248C8.33527 12.425 8.12052 12.4904 7.93793 12.6126C7.75534 12.7349 7.61309 12.9085 7.52919 13.1116C7.44528 13.3147 7.42348 13.5381 7.46654 13.7536C7.50961 13.969 7.6156 14.1669 7.77111 14.3221C7.92663 14.4774 8.12468 14.583 8.34023 14.6257C8.55579 14.6684 8.77915 14.6462 8.98208 14.5619C9.18502 14.4776 9.3584 14.3351 9.48032 14.1523C9.60223 13.9694 9.6672 13.7546 9.667 13.5348C9.66673 13.2403 9.5496 12.9578 9.3413 12.7495C9.13301 12.5412 8.85057 12.4241 8.556 12.4238L8.555 12.4248ZM8.555 12.9808C8.66497 12.9808 8.77246 13.0135 8.8639 13.0745C8.95533 13.1356 9.02659 13.2225 9.06868 13.3241C9.11076 13.4257 9.12177 13.5375 9.10032 13.6453C9.07886 13.7532 9.02591 13.8522 8.94815 13.93C8.87039 14.0078 8.77132 14.0607 8.66347 14.0822C8.55562 14.1036 8.44382 14.0926 8.34223 14.0505C8.24063 14.0084 8.1538 13.9372 8.0927 13.8457C8.03161 13.7543 7.999 13.6468 7.999 13.5368C7.99887 13.4637 8.01319 13.3912 8.04113 13.3235C8.06908 13.2559 8.1101 13.1944 8.16185 13.1427C8.2136 13.0909 8.27505 13.0499 8.34269 13.022C8.41033 12.994 8.48282 12.9797 8.556 12.9798L8.555 12.9808Z" fill="#64C243"/>
        <path fill-rule="evenodd" clip-rule="evenodd" d="M13.2747 6.86913C13.2747 6.64821 13.187 6.43633 13.0308 6.28011C12.8746 6.1239 12.6627 6.03613 12.4417 6.03613H12.1637C11.9428 6.03613 11.7309 6.1239 11.5747 6.28011C11.4185 6.43633 11.3307 6.64821 11.3307 6.86913V11.3131C11.3307 11.5341 11.4185 11.7459 11.5747 11.9022C11.7309 12.0584 11.9428 12.1461 12.1637 12.1461H12.4417C12.6627 12.1461 12.8746 12.0584 13.0308 11.9022C13.187 11.7459 13.2747 11.5341 13.2747 11.3131V6.86913ZM12.7188 6.86913V11.3131C12.7188 11.3869 12.6895 11.4576 12.6373 11.5097C12.5852 11.5618 12.5145 11.5911 12.4408 11.5911H12.1628C12.089 11.5911 12.0183 11.5618 11.9662 11.5097C11.914 11.4576 11.8848 11.3869 11.8848 11.3131V6.86913C11.8848 6.7954 11.914 6.72469 11.9662 6.67255C12.0183 6.62042 12.089 6.59113 12.1628 6.59113H12.4408C12.5145 6.59113 12.5852 6.62042 12.6373 6.67255C12.6895 6.72469 12.7188 6.7954 12.7188 6.86913ZM2.71875 6.86913V11.3131C2.71875 11.5341 2.80651 11.7459 2.96273 11.9022C3.11895 12.0584 3.33082 12.1461 3.55175 12.1461H3.82975C4.05068 12.1461 4.26255 12.0584 4.41877 11.9022C4.57499 11.7459 4.66275 11.5341 4.66275 11.3131V6.86913C4.66275 6.64821 4.57499 6.43633 4.41877 6.28011C4.26255 6.1239 4.05068 6.03613 3.82975 6.03613H3.55175C3.33082 6.03613 3.11895 6.1239 2.96273 6.28011C2.80651 6.43633 2.71875 6.64821 2.71875 6.86913ZM3.27475 11.3131V6.86913C3.27475 6.7954 3.30404 6.72469 3.35617 6.67255C3.40831 6.62042 3.47902 6.59113 3.55275 6.59113H3.83075C3.90448 6.59113 3.97519 6.62042 4.02732 6.67255C4.07946 6.72469 4.10875 6.7954 4.10875 6.86913V11.3131C4.10875 11.3869 4.07946 11.4576 4.02732 11.5097C3.97519 11.5618 3.90448 11.5911 3.83075 11.5911H3.55175C3.47802 11.5911 3.40731 11.5618 3.35518 11.5097C3.30304 11.4576 3.27475 11.3869 3.27475 11.3131Z" fill="#64C243"/>
      </svg>
    </symbol>

    <symbol id="sympleCalendarIcon">
      <svg width="14" height="16" viewBox="0 0 14 16" fill="none" xmlns="http://www.w3.org/2000/svg">
        <path d="M3.88889 9.6C3.66852 9.6 3.4838 9.52333 3.33472 9.37C3.18565 9.21667 3.11111 9.02667 3.11111 8.8C3.11111 8.57333 3.18565 8.38333 3.33472 8.23C3.4838 8.07667 3.66852 8 3.88889 8C4.10926 8 4.29398 8.07667 4.44306 8.23C4.59213 8.38333 4.66667 8.57333 4.66667 8.8C4.66667 9.02667 4.59213 9.21667 4.44306 9.37C4.29398 9.52333 4.10926 9.6 3.88889 9.6ZM7 9.6C6.77963 9.6 6.59491 9.52333 6.44583 9.37C6.29676 9.21667 6.22222 9.02667 6.22222 8.8C6.22222 8.57333 6.29676 8.38333 6.44583 8.23C6.59491 8.07667 6.77963 8 7 8C7.22037 8 7.40509 8.07667 7.55417 8.23C7.70324 8.38333 7.77778 8.57333 7.77778 8.8C7.77778 9.02667 7.70324 9.21667 7.55417 9.37C7.40509 9.52333 7.22037 9.6 7 9.6ZM10.1111 9.6C9.89074 9.6 9.70602 9.52333 9.55694 9.37C9.40787 9.21667 9.33333 9.02667 9.33333 8.8C9.33333 8.57333 9.40787 8.38333 9.55694 8.23C9.70602 8.07667 9.89074 8 10.1111 8C10.3315 8 10.5162 8.07667 10.6653 8.23C10.8144 8.38333 10.8889 8.57333 10.8889 8.8C10.8889 9.02667 10.8144 9.21667 10.6653 9.37C10.5162 9.52333 10.3315 9.6 10.1111 9.6ZM1.55556 16C1.12778 16 0.761574 15.8433 0.456944 15.53C0.152315 15.2167 0 14.84 0 14.4V3.2C0 2.76 0.152315 2.38333 0.456944 2.07C0.761574 1.75667 1.12778 1.6 1.55556 1.6H2.33333V0H3.88889V1.6H10.1111V0H11.6667V1.6H12.4444C12.8722 1.6 13.2384 1.75667 13.5431 2.07C13.8477 2.38333 14 2.76 14 3.2V14.4C14 14.84 13.8477 15.2167 13.5431 15.53C13.2384 15.8433 12.8722 16 12.4444 16H1.55556ZM1.55556 14.4H12.4444V6.4H1.55556V14.4Z" fill="#BFC1BC"/>
      </svg>
    </symbol>

    <symbol id="writeIcon">
      <svg width="40" height="41" viewBox="0 0 40 41" fill="none" xmlns="http://www.w3.org/2000/svg">
        <path d="M18.0926 33.7935H33.3307M29.5212 12.8411L31.426 14.7459M32.3783 8.07924C32.7536 8.4544 33.0513 8.89982 33.2544 9.39006C33.4575 9.88029 33.5621 10.4057 33.5621 10.9364C33.5621 11.467 33.4575 11.9925 33.2544 12.4827C33.0513 12.9729 32.7536 13.4184 32.3783 13.7935L14.2831 31.8888L6.66406 33.7935L8.56882 26.2811L26.6717 8.08686C27.3852 7.36985 28.3423 6.94736 29.3528 6.90325C30.3634 6.85914 31.3536 7.19665 32.1269 7.84876L32.3783 8.07924Z" stroke="white" stroke-width="2" stroke-linecap="round" stroke-linejoin="round"/>
      </svg>
    </symbol>

    <symbol id="chatIcon">
      <svg width="24" height="24" viewBox="0 0 24 24" fill="none" xmlns="http://www.w3.org/2000/svg">
        <g clip-path="url(#clip0_150_2880)">
          <path d="M4 4H20V16H5.17L4 17.17V4ZM4 2C2.9 2 2.01 2.9 2.01 4L2 22L6 18H20C21.1 18 22 17.1 22 16V4C22 2.9 21.1 2 20 2H4ZM6 12H18V14H6V12ZM6 9H18V11H6V9ZM6 6H18V8H6V6Z" fill="white"/>
        </g>
        <defs>
          <clipPath id="clip0_150_2880">
            <rect width="24" height="24" fill="white"/>
          </clipPath>
        </defs>
      </svg>
    </symbol>

    <symbol id="myScheduleIcon"> 
      <svg width="20" height="20" viewBox="0 0 20 20" fill="none" xmlns="http://www.w3.org/2000/svg">
        <g clip-path="url(#clip0_150_2470)">
          <path d="M16.6641 2.5026H15.8307V0.835938H14.1641V2.5026H5.83073V0.835938H4.16406V2.5026H3.33073C2.41406 2.5026 1.66406 3.2526 1.66406 4.16927V17.5026C1.66406 18.4193 2.41406 19.1693 3.33073 19.1693H16.6641C17.5807 19.1693 18.3307 18.4193 18.3307 17.5026V4.16927C18.3307 3.2526 17.5807 2.5026 16.6641 2.5026ZM16.6641 17.5026H3.33073V8.33594H16.6641V17.5026ZM16.6641 6.66927H3.33073V4.16927H16.6641V6.66927Z" fill="#73796E"/>
        </g>
        <defs>
          <clipPath id="clip0_150_2470">
            <rect width="20" height="20" fill="white"/>
          </clipPath>
        </defs>
      </svg>
    </symbol>

    <symbol id="plusIcon">
      <svg width="22" height="22" viewBox="0 0 22 22" fill="none" xmlns="http://www.w3.org/2000/svg">
        <path fill-rule="evenodd" clip-rule="evenodd" d="M11.8814 5.73054C11.8814 5.26033 11.5002 4.87915 11.03 4.87915C10.5598 4.87915 10.1786 5.26033 10.1786 5.73054V9.98748H5.9217C5.45149 9.98748 5.07031 10.3687 5.07031 10.8389C5.07031 11.3091 5.45149 11.6903 5.9217 11.6903H10.1786V15.9472C10.1786 16.4174 10.5598 16.7986 11.03 16.7986C11.5002 16.7986 11.8814 16.4174 11.8814 15.9472V11.6903H16.1384C16.6086 11.6903 16.9898 11.3091 16.9898 10.8389C16.9898 10.3687 16.6086 9.98748 16.1384 9.98748H11.8814V5.73054Z" fill="#BFC1BC"/>
      </svg>
    </symbol>

    <symbol id="sendIcon">
      <svg width="21" height="22" viewBox="0 0 21 22" fill="none" xmlns="http://www.w3.org/2000/svg">
        <g clip-path="url(#clip0_8_7337)">
          <path d="M18.7872 2.32605L9.42188 11.6913" stroke="#8F948B" stroke-width="1.70278" stroke-linecap="round" stroke-linejoin="round"/>
          <path d="M18.7856 2.32605L12.8259 19.3538L9.42031 11.6913L1.75781 8.28577L18.7856 2.32605Z" stroke="#8F948B" stroke-width="1.70278" stroke-linecap="round" stroke-linejoin="round"/>
        </g>
        <defs>
          <clipPath id="clip0_8_7337">
            <rect width="20.4333" height="20.4333" fill="white" transform="translate(0.0546875 0.622192)"/>
          </clipPath>
        </defs>
      </svg>
    </symbol>

    <symbol id="arrowLeftIcon">
      <svg width="24" height="24" viewBox="0 0 24 24" fill="none" xmlns="http://www.w3.org/2000/svg">
        <path d="M15 18L9 12L15 6" stroke="black" stroke-width="2" stroke-linecap="round" stroke-linejoin="round"/>
      </svg>
    </symbol>

    <symbol id="moreIcon">
      <svg width="24" height="24" viewBox="0 0 24 24" fill="none" xmlns="http://www.w3.org/2000/svg">
        <path d="M12 13C12.5523 13 13 12.5523 13 12C13 11.4477 12.5523 11 12 11C11.4477 11 11 11.4477 11 12C11 12.5523 11.4477 13 12 13Z" stroke="#898989" stroke-width="2" stroke-linecap="round" stroke-linejoin="round"/>
        <path d="M12 6C12.5523 6 13 5.55228 13 5C13 4.44772 12.5523 4 12 4C11.4477 4 11 4.44772 11 5C11 5.55228 11.4477 6 12 6Z" stroke="#898989" stroke-width="2" stroke-linecap="round" stroke-linejoin="round"/>
        <path d="M12 20C12.5523 20 13 19.5523 13 19C13 18.4477 12.5523 18 12 18C11.4477 18 11 18.4477 11 19C11 19.5523 11.4477 20 12 20Z" stroke="#898989" stroke-width="2" stroke-linecap="round" stroke-linejoin="round"/>
      </svg>
    </symbol>

    <symbol id="cameraIcon">
      <svg width="40" height="40" viewBox="0 0 40 40" fill="none" xmlns="http://www.w3.org/2000/svg">
        <rect width="40" height="40" rx="5" fill="#D4D5D2"/>
          <g clip-path="url(#clip0_58_5382)">
            <path d="M22.12 12L23.95 14H28V26H12V14H16.05L17.88 12H22.12ZM23 10H17L15.17 12H12C10.9 12 10 12.9 10 14V26C10 27.1 10.9 28 12 28H28C29.1 28 30 27.1 30 26V14C30 12.9 29.1 12 28 12H24.83L23 10ZM20 17C21.65 17 23 18.35 23 20C23 21.65 21.65 23 20 23C18.35 23 17 21.65 17 20C17 18.35 18.35 17 20 17ZM20 15C17.24 15 15 17.24 15 20C15 22.76 17.24 25 20 25C22.76 25 25 22.76 25 20C25 17.24 22.76 15 20 15Z" fill="white"/>
          </g>
        <defs>
          <clipPath id="clip0_58_5382">
          <rect width="24" height="24" fill="white" transform="translate(8 8)"/>
        </clipPath>
        </defs>
      </svg>
    </symbol>

    <symbol id="closeIcon">
      <svg width="24" height="24" viewBox="0 0 24 24" fill="none" xmlns="http://www.w3.org/2000/svg">
        <path d="M18 6L6 18" stroke="black" stroke-width="2" stroke-linecap="round" stroke-linejoin="round"/>
        <path d="M6 6L18 18" stroke="black" stroke-width="2" stroke-linecap="round" stroke-linejoin="round"/>
      </svg>
    </symbol>

    <symbol id="changeImageIcon">
      <svg width="24" height="24" viewBox="0 0 24 24" fill="none" xmlns="http://www.w3.org/2000/svg">
        <path d="M23 19C23 19.5304 22.7893 20.0391 22.4142 20.4142C22.0391 20.7893 21.5304 21 21 21H3C2.46957 21 1.96086 20.7893 1.58579 20.4142C1.21071 20.0391 1 19.5304 1 19V8C1 7.46957 1.21071 6.96086 1.58579 6.58579C1.96086 6.21071 2.46957 6 3 6H7L9 3H15L17 6H21C21.5304 6 22.0391 6.21071 22.4142 6.58579C22.7893 6.96086 23 7.46957 23 8V19Z" stroke="white" stroke-width="2" stroke-linecap="round" stroke-linejoin="round"/>
        <path d="M12 17C14.2091 17 16 15.2091 16 13C16 10.7909 14.2091 9 12 9C9.79086 9 8 10.7909 8 13C8 15.2091 9.79086 17 12 17Z" stroke="white" stroke-width="2" stroke-linecap="round" stroke-linejoin="round"/>
      </svg>
    </symbol>

    <!-- Add more symbol elements for additional icons -->
</svg>
